<svg xmlns="http://www.w3.org/2000/svg" viewBox="0 0 1034.9 1034.9"><defs><style>.cls-2{fill:#46c0ef}.cls-3{fill:#fff}</style></defs><circle cx="517.5" cy="517.5" r="491.9" fill="none" stroke="#3fc0ef" stroke-miterlimit="10" stroke-width="51" id="circle"/><g id="EditIcon"><path class="cls-2" d="M697.3 980.2a226.3 226.3 0 0151.1-72L1178 499.4a96.3 96.3 0 01136 3.4l7.3 7.6a96.3 96.3 0 01-3.4 136.1l-421.5 401a212.7 212.7 0 01-75.5 46.4c-59.4 21-118.8 37.6-138.1 17.2-17.3-18.2-10.3-75 14.5-131z" transform="translate(-469.1 -281.5)"/><circle class="cls-2" cx="213.7" cy="830.1" r="11.8"/><path class="cls-3" d="M720.6 957.1s10.4 39.1 41.2 71.3 86 42 86 42-113.4 63.1-149.6 27c-39.6-39.6 22.4-140.3 22.4-140.3z" transform="translate(-469.1 -281.5)"/><rect class="cls-3" x="1092.4" y="600.1" width="210.4" height="46" rx="17.8" transform="rotate(46.4 1291.6 -65)"/></g></svg>