<svg xmlns="http://www.w3.org/2000/svg" width="36.564" height="40.333" viewBox="0 0 36.564 40.333">
  <g id="NavBar-Profile-Selected" transform="translate(0 1.952)">
    <ellipse id="Ellipse_58" data-name="Ellipse 58" cx="10.377" cy="10.377" rx="10.377" ry="10.377" transform="translate(7.906 0)" fill="#3fc0ef" stroke="#313131" stroke-miterlimit="10" stroke-width="3.904"/>
    <path id="Path_67" data-name="Path 67" d="M56.278,57.406a23.959,23.959,0,0,0,16.488-6.546c-3.3-5.233-8.9-9.761-16.447-9.762-7.566,0-13.186,4.552-16.478,9.809a23.955,23.955,0,0,0,16.437,6.5Z" transform="translate(-38.017 -19.026)" fill="#3fc0ef"/>
    <path id="Path_68" data-name="Path 68" d="M41.31,51.858c2.9-4.778,7.934-8.908,14.5-8.908h0c6.527,0,11.556,4.115,14.467,8.872a24.171,24.171,0,0,0,3.8-3.587,26.371,26.371,0,0,0-2.444-3.146,22.783,22.783,0,0,0-6.777-5.173,20.287,20.287,0,0,0-9.042-2.1h0a20.284,20.284,0,0,0-9.068,2.11,22.8,22.8,0,0,0-6.792,5.2,26.423,26.423,0,0,0-2.438,3.159,24.193,24.193,0,0,0,3.8,3.571Z" transform="translate(-37.511 -18.312)" fill="#313131"/>
  </g>
</svg>
