<svg xmlns="http://www.w3.org/2000/svg" width="36.476" height="40.084" viewBox="0 0 36.476 40.084">
  <g id="NavBar-Profile-NotSelected" transform="translate(0 1.799)">
    <ellipse id="Ellipse_57" data-name="Ellipse 57" cx="10.351" cy="10.351" rx="10.351" ry="10.351" transform="translate(7.889 0)" fill="#fff" stroke="#b3b4b5" stroke-miterlimit="10" stroke-width="3.597"/>
    <path id="Path_41" data-name="Path 41" d="M53.015,54.114a23.9,23.9,0,0,0,16.447-6.529c-3.285-5.22-8.88-9.737-16.406-9.738-7.547,0-13.153,4.54-16.437,9.785a23.894,23.894,0,0,0,16.4,6.482Z" transform="translate(-34.797 -15.829)" fill="#fff"/>
    <path id="Path_42" data-name="Path 42" d="M38.261,48.829c2.893-4.766,7.915-8.886,14.464-8.886h0c6.511,0,11.528,4.1,14.431,8.85a24.109,24.109,0,0,0,3.788-3.578,26.353,26.353,0,0,0-2.438-3.138,22.733,22.733,0,0,0-6.76-5.16,20.238,20.238,0,0,0-9.019-2.095h0a20.236,20.236,0,0,0-9.046,2.1A22.753,22.753,0,0,0,36.9,42.116a26.356,26.356,0,0,0-2.435,3.148A24.155,24.155,0,0,0,38.261,48.829Z" transform="translate(-34.468 -15.366)" fill="#b3b4b5"/>
  </g>
</svg>
