<svg xmlns="http://www.w3.org/2000/svg" viewBox="0 0 776 776"><defs><style>.cls-1{fill:#f4f3f4;}.cls-2{fill:#43c0ef;}.cls-3{fill:#979796;}</style></defs><g id="button"><circle class="cls-1" cx="388" cy="388" r="388"/></g><g id="Settings"><circle class="cls-2" cx="388" cy="388" r="62.01"/><path class="cls-3" d="M1157.36,590.72c.71.06,13.1.09,13.82.09a24.48,24.48,0,1,0,0-48.95c-.82,0-13.31,0-14.11.12l-.54,0a156.47,156.47,0,0,0-8.7-32.72l.43-.19c.74-.33,11.57-6.54,12.28-6.95a24.48,24.48,0,0,0-24.47-42.4c-.63.36-11.34,6.59-11.93,7q-.29.19-.57.42a159.87,159.87,0,0,0-23.94-24,3.15,3.15,0,0,0,.22-.29c.47-.66,6.75-11.45,7.16-12.17a24.47,24.47,0,1,0-42.39-24.47c-.36.62-6.54,11.37-6.84,12l-.24.55a155.92,155.92,0,0,0-32.77-8.79l0-.3c.08-.8.12-13.29.12-14.11a24.48,24.48,0,0,0-49,0c0,.72,0,13.12.09,13.82a5.9,5.9,0,0,0,.06.59,155.92,155.92,0,0,0-32.77,8.79l-.12-.28c-.34-.73-6.55-11.57-7-12.28a24.48,24.48,0,0,0-42.4,24.47c.36.63,6.58,11.35,7,11.93.13.18.25.36.39.53a159.87,159.87,0,0,0-23.94,24l-.34-.25c-.65-.47-11.45-6.75-12.16-7.16a24.48,24.48,0,0,0-24.47,42.4c.62.36,11.37,6.53,12,6.83l.7.31a156.47,156.47,0,0,0-8.7,32.72l-.54,0c-.8-.08-13.29-.12-14.11-.12a24.48,24.48,0,1,0,0,48.95c.72,0,13.11,0,13.82-.09l.92-.1a155.6,155.6,0,0,0,8.81,32.66c-.3.12-.6.26-.9.4-.64.3-11.39,6.46-12,6.82a24.48,24.48,0,0,0,24.47,42.4c.71-.41,11.51-6.69,12.16-7.15l.64-.47a161.35,161.35,0,0,0,11.18,12.41,157.94,157.94,0,0,0,12.74,11.44c-.24.3-.45.6-.67.91-.41.58-6.63,11.3-7,11.92a24.48,24.48,0,0,0,42.4,24.48c.4-.71,6.61-11.55,7-12.28l.34-.79a156.25,156.25,0,0,0,32.62,8.72c-.05.38-.1.77-.13,1.16-.06.71-.09,13.1-.09,13.82a24.48,24.48,0,1,0,49,0c0-.82,0-13.31-.12-14.11,0-.29-.06-.58-.1-.87a155.8,155.8,0,0,0,32.62-8.72c.15.35.3.7.46,1,.3.64,6.48,11.39,6.84,12A24.48,24.48,0,0,0,1107,702c-.41-.71-6.69-11.51-7.16-12.16-.16-.23-.32-.45-.49-.67a159.91,159.91,0,0,0,23.91-23.86l.87.64c.59.41,11.3,6.63,11.93,7a24.48,24.48,0,0,0,24.47-42.4c-.71-.4-11.54-6.61-12.28-7l-.63-.28a155.35,155.35,0,0,0,8.81-32.65Zm-156.91,60.56A85.24,85.24,0,1,1,1085.68,566,85.33,85.33,0,0,1,1000.45,651.28Z" transform="translate(-612.44 -178.34)"/></g></svg>