<svg xmlns="http://www.w3.org/2000/svg" viewBox="0 0 776 776"><circle cx="388" cy="388" r="388" fill="#f4f3f4"/><circle cx="388" cy="388" r="62" fill="#43c0ef"/><path d="M545 412.4h13.7a24.5 24.5 0 100-48.9l-14 .1h-.6a156.5 156.5 0 00-8.7-32.7l.4-.2c.8-.3 11.6-6.5 12.3-7a24.5 24.5 0 00-24.5-42.4l-11.9 7-.6.5a159.9 159.9 0 00-24-24 3.1 3.1 0 00.3-.3l7.2-12.2a24.5 24.5 0 10-42.4-24.5l-6.9 12-.2.6a156 156 0 00-32.8-8.8v-.3l.1-14.1a24.5 24.5 0 00-49 0l.1 13.8a5.9 5.9 0 00.1.6 156 156 0 00-32.8 8.8v-.3l-7-12.3a24.5 24.5 0 00-42.5 24.5l7 12 .4.4a159.9 159.9 0 00-24 24l-.3-.2a808 808 0 00-12.1-7.2 24.5 24.5 0 00-24.5 42.4l12 6.9.7.3a156.5 156.5 0 00-8.7 32.7h-.6l-14-.1a24.5 24.5 0 100 49c.7 0 13 0 13.8-.2h.9a155.6 155.6 0 008.8 32.6l-1 .4a948 948 0 00-12 6.8 24.5 24.5 0 0024.6 42.4l12.1-7.1.7-.5a161.3 161.3 0 0011.1 12.4 158 158 0 0012.8 11.4l-.7 1-7 11.9a24.5 24.5 0 0042.4 24.4l7-12.2.3-.8a156.3 156.3 0 0032.7 8.7l-.2 1.2v13.8a24.5 24.5 0 1049 0c0-.8 0-13.3-.2-14.1v-.9a155.8 155.8 0 0032.5-8.7l.5 1 6.8 12a24.5 24.5 0 0042.5-24.3 808 808 0 00-7.7-12.9 160 160 0 0024-23.8l.8.6 12 7a24.5 24.5 0 0024.4-42.4l-12.3-7-.6-.3a155.3 155.3 0 008.8-32.6zm-157 60.5a85.2 85.2 0 1185.2-85.2 85.3 85.3 0 01-85.2 85.2z" fill="#979796"/></svg>