<svg xmlns="http://www.w3.org/2000/svg" viewBox="0 0 66215 662" width="66215" height="662"><path d="M492.04 147.1l56.43-53.53H492l.04 53.53z" fill="#46c0ef"/><path d="M121.66 376.33c114.33 58 175.33 169.33 175.33 169.33s40.34-131.33 229.67-343.33c33.57-37.59 144-138 212-161.33" fill="none"/><path d="M540.22 312.5v263.1c-.003 15.865-6.314 31.096-17.533 42.314-11.22 11.217-26.452 17.526-42.317 17.526H86.6c-15.865 0-31.097-6.309-42.317-17.526-11.219-11.218-17.53-26.449-17.533-42.314V180.17c.003-15.865 6.314-31.096 17.533-42.314 11.22-11.217 26.452-17.526 42.317-17.526h406.06" fill="none" stroke="#46c0ef" stroke-width="53.5" stroke-dasharray="0,1740.3621206561797" stroke-dashoffset="1740.362121"/><path d="M1271.04 147.1l56.43-53.53H1271l.04 53.53z" fill="#46c0ef"/><path d="M900.66 376.33c114.33 58 175.33 169.33 175.33 169.33s40.34-131.33 229.67-343.33c33.57-37.59 144-138 212-161.33" fill="none"/><path d="M1319.22 312.5v263.1c-.003 15.865-6.314 31.096-17.533 42.314-11.22 11.217-26.452 17.526-42.317 17.526H865.6c-15.865 0-31.097-6.309-42.317-17.526-11.219-11.218-17.53-26.449-17.533-42.314V180.17c.003-15.865 6.314-31.096 17.533-42.314 11.22-11.217 26.452-17.526 42.317-17.526h406.06" fill="none" stroke="#46c0ef" stroke-width="53.5" stroke-dasharray="165.23572934725888,1575.1263913089208" stroke-dashoffset="165.235729"/><path d="M2050.04 147.1l56.43-53.53H2050l.04 53.53z" fill="#46c0ef"/><path d="M1679.66 376.33c114.33 58 175.33 169.33 175.33 169.33s40.34-131.33 229.67-343.33c33.57-37.59 144-138 212-161.33" fill="none"/><path d="M2098.22 312.5v263.1c-.003 15.865-6.314 31.096-17.533 42.314-11.22 11.217-26.452 17.526-42.317 17.526H1644.6c-15.865 0-31.097-6.309-42.317-17.526-11.219-11.218-17.53-26.449-17.533-42.314V180.17c.003-15.865 6.314-31.096 17.533-42.314 11.22-11.217 26.452-17.526 42.317-17.526h406.06" fill="none" stroke="#46c0ef" stroke-width="53.5" stroke-dasharray="299.044052775612,1441.3180678805677" stroke-dashoffset="299.044053"/><path d="M2829.04 147.1l56.43-53.53H2829l.04 53.53z" fill="#46c0ef"/><path d="M2458.66 376.33c114.33 58 175.33 169.33 175.33 169.33s40.34-131.33 229.67-343.33c33.57-37.59 144-138 212-161.33" fill="none"/><path d="M2877.22 312.5v263.1c-.003 15.865-6.314 31.096-17.533 42.314-11.22 11.217-26.452 17.526-42.317 17.526H2423.6c-15.865 0-31.097-6.309-42.317-17.526-11.219-11.218-17.53-26.449-17.533-42.314V180.17c.003-15.865 6.314-31.096 17.533-42.314 11.22-11.217 26.452-17.526 42.317-17.526h406.06" fill="none" stroke="#46c0ef" stroke-width="53.5" stroke-dasharray="416.01013692162036,1324.3519837345593" stroke-dashoffset="416.010137"/><path d="M3608.04 147.1l56.43-53.53H3608l.04 53.53z" fill="#46c0ef"/><path d="M3237.66 376.33c114.33 58 175.33 169.33 175.33 169.33s40.34-131.33 229.67-343.33c33.57-37.59 144-138 212-161.33" fill="none"/><path d="M3656.22 312.5v263.1c-.003 15.865-6.314 31.096-17.533 42.314-11.22 11.217-26.452 17.526-42.317 17.526H3202.6c-15.865 0-31.097-6.309-42.317-17.526-11.219-11.218-17.53-26.449-17.533-42.314V180.17c.003-15.865 6.314-31.096 17.533-42.314 11.22-11.217 26.452-17.526 42.317-17.526h406.06" fill="none" stroke="#46c0ef" stroke-width="53.5" stroke-dasharray="520.8560956289759,1219.5060250272038" stroke-dashoffset="520.856096"/><path d="M4387.04 147.1l56.43-53.53H4387l.04 53.53z" fill="#46c0ef"/><path d="M4016.66 376.33c114.33 58 175.33 169.33 175.33 169.33s40.34-131.33 229.67-343.33c33.57-37.59 144-138 212-161.33" fill="none"/><path d="M4435.22 312.5v263.1c-.003 15.865-6.314 31.096-17.533 42.314-11.22 11.217-26.452 17.526-42.317 17.526H3981.6c-15.865 0-31.097-6.309-42.317-17.526-11.219-11.218-17.53-26.449-17.533-42.314V180.17c.003-15.865 6.314-31.096 17.533-42.314 11.22-11.217 26.452-17.526 42.317-17.526h406.06" fill="none" stroke="#46c0ef" stroke-width="53.5" stroke-dasharray="616.1407529982775,1124.2213676579022" stroke-dashoffset="616.140753"/><path d="M5166.04 147.1l56.43-53.53H5166l.04 53.53z" fill="#46c0ef"/><path d="M4795.66 376.33c114.33 58 175.33 169.33 175.33 169.33s40.34-131.33 229.67-343.33c33.57-37.59 144-138 212-161.33" fill="none"/><path d="M5214.22 312.5v263.1c-.003 15.865-6.314 31.096-17.533 42.314-11.22 11.217-26.452 17.526-42.317 17.526H4760.6c-15.865 0-31.097-6.309-42.317-17.526-11.219-11.218-17.53-26.449-17.533-42.314V180.17c.003-15.865 6.314-31.096 17.533-42.314 11.22-11.217 26.452-17.526 42.317-17.526h406.06" fill="none" stroke="#46c0ef" stroke-width="53.5" stroke-dasharray="703.5007722713884,1036.8613483847912" stroke-dashoffset="703.500772"/><path d="M5945.04 147.1l56.43-53.53H5945l.04 53.53z" fill="#46c0ef"/><path d="M5574.66 376.33c114.33 58 175.33 169.33 175.33 169.33s40.34-131.33 229.67-343.33c33.57-37.59 144-138 212-161.33" fill="none"/><path d="M5993.22 312.5v263.1c-.003 15.865-6.314 31.096-17.533 42.314-11.22 11.217-26.452 17.526-42.317 17.526H5539.6c-15.865 0-31.097-6.309-42.317-17.526-11.219-11.218-17.53-26.449-17.533-42.314V180.17c.003-15.865 6.314-31.096 17.533-42.314 11.22-11.217 26.452-17.526 42.317-17.526h406.06" fill="none" stroke="#46c0ef" stroke-width="53.5" stroke-dasharray="784.082980428674,956.2791402275058" stroke-dashoffset="784.08298"/><path d="M6724.04 147.1l56.43-53.53H6724l.04 53.53z" fill="#46c0ef"/><path d="M6353.66 376.33c114.33 58 175.33 169.33 175.33 169.33s40.34-131.33 229.67-343.33c33.57-37.59 144-138 212-161.33" fill="none"/><path d="M6772.22 312.5v263.1c-.003 15.865-6.314 31.096-17.533 42.314-11.22 11.217-26.452 17.526-42.317 17.526H6318.6c-15.865 0-31.097-6.309-42.317-17.526-11.219-11.218-17.53-26.449-17.533-42.314V180.17c.003-15.865 6.314-31.096 17.533-42.314 11.22-11.217 26.452-17.526 42.317-17.526h406.06" fill="none" stroke="#46c0ef" stroke-width="53.5" stroke-dasharray="858.7396719831158,881.6224486730639" stroke-dashoffset="858.739672"/><path d="M7503.04 147.1l56.43-53.53H7503l.04 53.53z" fill="#46c0ef"/><path d="M7132.66 376.33c114.33 58 175.33 169.33 175.33 169.33s40.34-131.33 229.67-343.33c33.57-37.59 144-138 212-161.33" fill="none"/><path d="M7551.22 312.5v263.1c-.003 15.865-6.314 31.096-17.533 42.314-11.22 11.217-26.452 17.526-42.317 17.526H7097.6c-15.865 0-31.097-6.309-42.317-17.526-11.219-11.218-17.53-26.449-17.533-42.314V180.17c.003-15.865 6.314-31.096 17.533-42.314 11.22-11.217 26.452-17.526 42.317-17.526h406.06" fill="none" stroke="#46c0ef" stroke-width="53.5" stroke-dasharray="928.1310437864164,812.2310768697633" stroke-dashoffset="928.131044"/><path d="M8282.04 147.1l56.43-53.53H8282l.04 53.53z" fill="#46c0ef"/><path d="M7911.66 376.33c114.33 58 175.33 169.33 175.33 169.33s40.34-131.33 229.67-343.33c33.57-37.59 144-138 212-161.33" fill="none"/><path d="M8330.22 312.5v263.1c-.003 15.865-6.314 31.096-17.533 42.314-11.22 11.217-26.452 17.526-42.317 17.526H7876.6c-15.865 0-31.097-6.309-42.317-17.526-11.219-11.218-17.53-26.449-17.533-42.314V180.17c.003-15.865 6.314-31.096 17.533-42.314 11.22-11.217 26.452-17.526 42.317-17.526h406.06" fill="none" stroke="#46c0ef" stroke-width="53.5" stroke-dasharray="992.7845309339087,747.577589722271" stroke-dashoffset="992.784531"/><path d="M9061.04 147.1l56.43-53.53H9061l.04 53.53z" fill="#46c0ef"/><path d="M8690.66 376.33c114.33 58 175.33 169.33 175.33 169.33s40.34-131.33 229.67-343.33c33.57-37.59 144-138 212-161.33" fill="none"/><path d="M9109.22 312.5v263.1c-.003 15.865-6.314 31.096-17.533 42.314-11.22 11.217-26.452 17.526-42.317 17.526H8655.6c-15.865 0-31.097-6.309-42.317-17.526-11.219-11.218-17.53-26.449-17.533-42.314V180.17c.003-15.865 6.314-31.096 17.533-42.314 11.22-11.217 26.452-17.526 42.317-17.526h406.06" fill="none" stroke="#46c0ef" stroke-width="53.5" stroke-dasharray="1053.1317273775107,687.2303932786689" stroke-dashoffset="1053.131727"/><path d="M9840.04 147.1l56.43-53.53H9840l.04 53.53z" fill="#46c0ef"/><path d="M9469.66 376.33c114.33 58 175.33 169.33 175.33 169.33s40.34-131.33 229.67-343.33c33.57-37.59 144-138 212-161.33" fill="none"/><path d="M9888.22 312.5v263.1c-.003 15.865-6.314 31.096-17.533 42.314-11.22 11.217-26.452 17.526-42.317 17.526H9434.6c-15.865 0-31.097-6.309-42.317-17.526-11.219-11.218-17.53-26.449-17.533-42.314V180.17c.003-15.865 6.314-31.096 17.533-42.314 11.22-11.217 26.452-17.526 42.317-17.526h406.06" fill="none" stroke="#46c0ef" stroke-width="53.5" stroke-dasharray="1109.5326411906674,630.8294794655123" stroke-dashoffset="1109.532641"/><path d="M10619.04 147.1l56.43-53.53H10619l.04 53.53z" fill="#46c0ef"/><path d="M10248.66 376.33c114.33 58 175.33 169.33 175.33 169.33s40.34-131.33 229.67-343.33c33.57-37.59 144-138 212-161.33" fill="none"/><path d="M10667.22 312.5v263.1c-.003 15.865-6.314 31.096-17.533 42.314-11.22 11.217-26.452 17.526-42.317 17.526h-393.77c-15.865 0-31.097-6.309-42.317-17.526-11.219-11.218-17.53-26.449-17.533-42.314V180.17c.003-15.865 6.314-31.096 17.533-42.314 11.22-11.217 26.452-17.526 42.317-17.526h406.06" fill="none" stroke="#46c0ef" stroke-width="53.5" stroke-dasharray="1162.292325274544,578.0697953816358" stroke-dashoffset="1162.292325"/><path d="M11398.04 147.1l56.43-53.53H11398l.04 53.53z" fill="#46c0ef"/><path d="M11027.66 376.33c114.33 58 175.33 169.33 175.33 169.33s40.34-131.33 229.67-343.33c33.57-37.59 144-138 212-161.33" fill="none"/><path d="M11446.22 312.5v263.1c-.003 15.865-6.314 31.096-17.533 42.314-11.22 11.217-26.452 17.526-42.317 17.526h-393.77c-15.865 0-31.097-6.309-42.317-17.526-11.219-11.218-17.53-26.449-17.533-42.314V180.17c.003-15.865 6.314-31.096 17.533-42.314 11.22-11.217 26.452-17.526 42.317-17.526h406.06" fill="none" stroke="#46c0ef" stroke-width="53.5" stroke-dasharray="1211.6726817103531,528.6894389458266" stroke-dashoffset="1211.672682"/><path d="M12177.04 147.1l56.43-53.53H12177l.04 53.53z" fill="#46c0ef"/><path d="M11806.66 376.33c114.33 58 175.33 169.33 175.33 169.33s40.34-131.33 229.67-343.33c33.57-37.59 144-138 212-161.33" fill="none"/><path d="M12225.22 312.5v263.1c-.003 15.865-6.314 31.096-17.533 42.314-11.22 11.217-26.452 17.526-42.317 17.526h-393.77c-15.865 0-31.097-6.309-42.317-17.526-11.219-11.218-17.53-26.449-17.533-42.314V180.17c.003-15.865 6.314-31.096 17.533-42.314 11.22-11.217 26.452-17.526 42.317-17.526h406.06" fill="none" stroke="#46c0ef" stroke-width="53.5" stroke-dasharray="1257.9010836251427,482.461037031037" stroke-dashoffset="1257.901084"/><path d="M12956.04 147.1l56.43-53.53H12956l.04 53.53z" fill="#46c0ef"/><path d="M12585.66 376.33c114.33 58 175.33 169.33 175.33 169.33s40.34-131.33 229.67-343.33c33.57-37.59 144-138 212-161.33" fill="none"/><path d="M13004.22 312.5v263.1c-.003 15.865-6.314 31.096-17.533 42.314-11.22 11.217-26.452 17.526-42.317 17.526h-393.77c-15.865 0-31.097-6.309-42.317-17.526-11.219-11.218-17.53-26.449-17.533-42.314V180.17c.003-15.865 6.314-31.096 17.533-42.314 11.22-11.217 26.452-17.526 42.317-17.526h406.06" fill="none" stroke="#46c0ef" stroke-width="53.5" stroke-dasharray="1301.176826082801,439.1852945733787" stroke-dashoffset="1301.176826"/><path d="M13735.04 147.1l56.43-53.53H13735l.04 53.53z" fill="#46c0ef"/><path d="M13364.66 376.33c114.33 58 175.33 169.33 175.33 169.33s40.34-131.33 229.67-343.33c33.57-37.59 144-138 212-161.33" fill="none"/><path d="M13783.22 312.5v263.1c-.003 15.865-6.314 31.096-17.533 42.314-11.22 11.217-26.452 17.526-42.317 17.526h-393.77c-15.865 0-31.097-6.309-42.317-17.526-11.219-11.218-17.53-26.449-17.533-42.314V180.17c.003-15.865 6.314-31.096 17.533-42.314 11.22-11.217 26.452-17.526 42.317-17.526h406.06" fill="none" stroke="#46c0ef" stroke-width="53.5" stroke-dasharray="1341.6760529304988,398.6860677256809" stroke-dashoffset="1341.676053"/><path d="M14514.04 147.1l56.43-53.53H14514l.04 53.53z" fill="#46c0ef"/><path d="M14143.66 376.33c114.33 58 175.33 169.33 175.33 169.33s40.34-131.33 229.67-343.33c33.57-37.59 144-138 212-161.33" fill="none"/><path d="M14562.22 312.5v263.1c-.003 15.865-6.314 31.096-17.533 42.314-11.22 11.217-26.452 17.526-42.317 17.526h-393.77c-15.865 0-31.097-6.309-42.317-17.526-11.219-11.218-17.53-26.449-17.533-42.314V180.17c.003-15.865 6.314-31.096 17.533-42.314 11.22-11.217 26.452-17.526 42.317-17.526h406.06" fill="none" stroke="#46c0ef" stroke-width="53.5" stroke-dasharray="1379.555587138567,360.80653351761276" stroke-dashoffset="1379.555587"/><path d="M15293.04 147.1l56.43-53.53H15293l.04 53.53z" fill="#46c0ef"/><path d="M14922.66 376.33c114.33 58 175.33 169.33 175.33 169.33s40.34-131.33 229.67-343.33c33.57-37.59 144-138 212-161.33" fill="none"/><path d="M15341.22 312.5v263.1c-.003 15.865-6.314 31.096-17.533 42.314-11.22 11.217-26.452 17.526-42.317 17.526h-393.77c-15.865 0-31.097-6.309-42.317-17.526-11.219-11.218-17.53-26.449-17.533-42.314V180.17c.003-15.865 6.314-31.096 17.533-42.314 11.22-11.217 26.452-17.526 42.317-17.526h406.06" fill="none" stroke="#46c0ef" stroke-width="53.5" stroke-dasharray="1414.955955252143,325.4061654040368" stroke-dashoffset="1414.955955"/><path d="M16072.04 147.1l56.43-53.53H16072l.04 53.53z" fill="#46c0ef"/><path d="M15701.66 376.33c114.33 58 175.33 169.33 175.33 169.33s40.34-131.33 229.67-343.33c33.57-37.59 144-138 212-161.33" fill="none"/><path d="M16120.22 312.5v263.1c-.003 15.865-6.314 31.096-17.533 42.314-11.22 11.217-26.452 17.526-42.317 17.526h-393.77c-15.865 0-31.097-6.309-42.317-17.526-11.219-11.218-17.53-26.449-17.533-42.314V180.17c.003-15.865 6.314-31.096 17.533-42.314 11.22-11.217 26.452-17.526 42.317-17.526h406.06" fill="none" stroke="#46c0ef" stroke-width="53.5" stroke-dasharray="1448.0038083979373,292.35831225824245" stroke-dashoffset="1448.003808"/><path d="M16851.04 147.1l56.43-53.53H16851l.04 53.53z" fill="#46c0ef"/><path d="M16480.66 376.33c114.33 58 175.33 169.33 175.33 169.33s40.34-131.33 229.67-343.33c33.57-37.59 144-138 212-161.33" fill="none"/><path d="M16899.22 312.5v263.1c-.003 15.865-6.314 31.096-17.533 42.314-11.22 11.217-26.452 17.526-42.317 17.526h-393.77c-15.865 0-31.097-6.309-42.317-17.526-11.219-11.218-17.53-26.449-17.533-42.314V180.17c.003-15.865 6.314-31.096 17.533-42.314 11.22-11.217 26.452-17.526 42.317-17.526h406.06" fill="none" stroke="#46c0ef" stroke-width="53.5" stroke-dasharray="1478.813883930446,261.5482367257336" stroke-dashoffset="1478.813884"/><path d="M17630.04 147.1l56.43-53.53H17630l.04 53.53z" fill="#46c0ef"/><path d="M17259.66 376.33c114.33 58 175.33 169.33 175.33 169.33s40.34-131.33 229.67-343.33c33.57-37.59 144-138 212-161.33" fill="none"/><path d="M17678.22 312.5v263.1c-.003 15.865-6.314 31.096-17.533 42.314-11.22 11.217-26.452 17.526-42.317 17.526h-393.77c-15.865 0-31.097-6.309-42.317-17.526-11.219-11.218-17.53-26.449-17.533-42.314V180.17c.003-15.865 6.314-31.096 17.533-42.314 11.22-11.217 26.452-17.526 42.317-17.526h406.06" fill="none" stroke="#46c0ef" stroke-width="53.5" stroke-dasharray="1507.490612235582,232.87150842059785" stroke-dashoffset="1507.490612"/><path d="M18409.04 147.1l56.43-53.53H18409l.04 53.53z" fill="#46c0ef"/><path d="M18038.66 376.33c114.33 58 175.33 169.33 175.33 169.33s40.34-131.33 229.67-343.33c33.57-37.59 144-138 212-161.33" fill="none"/><path d="M18457.22 312.5v263.1c-.003 15.865-6.314 31.096-17.533 42.314-11.22 11.217-26.452 17.526-42.317 17.526h-393.77c-15.865 0-31.097-6.309-42.317-17.526-11.219-11.218-17.53-26.449-17.533-42.314V180.17c.003-15.865 6.314-31.096 17.533-42.314 11.22-11.217 26.452-17.526 42.317-17.526h406.06" fill="none" stroke="#46c0ef" stroke-width="53.5" stroke-dasharray="1534.1294458054654,206.23267485071435" stroke-dashoffset="1534.129446"/><path d="M19188.04 147.1l56.43-53.53H19188l.04 53.53z" fill="#46c0ef"/><path d="M18817.66 376.33c114.33 58 175.33 169.33 175.33 169.33s40.34-131.33 229.67-343.33c33.57-37.59 144-138 212-161.33" fill="none"/><path d="M19236.22 312.5v263.1c-.003 15.865-6.314 31.096-17.533 42.314-11.22 11.217-26.452 17.526-42.317 17.526h-393.77c-15.865 0-31.097-6.309-42.317-17.526-11.219-11.218-17.53-26.449-17.533-42.314V180.17c.003-15.865 6.314-31.096 17.533-42.314 11.22-11.217 26.452-17.526 42.317-17.526h406.06" fill="none" stroke="#46c0ef" stroke-width="53.5" stroke-dasharray="1558.8179683519359,181.54415230424385" stroke-dashoffset="1558.817968"/><path d="M19967.04 147.1l56.43-53.53H19967l.04 53.53z" fill="#46c0ef"/><path d="M19596.66 376.33c114.33 58 175.33 169.33 175.33 169.33s40.34-131.33 229.67-343.33c33.57-37.59 144-138 212-161.33" fill="none"/><path d="M20015.22 312.5v263.1c-.003 15.865-6.314 31.096-17.533 42.314-11.22 11.217-26.452 17.526-42.317 17.526h-393.77c-15.865 0-31.097-6.309-42.317-17.526-11.219-11.218-17.53-26.449-17.533-42.314V180.17c.003-15.865 6.314-31.096 17.533-42.314 11.22-11.217 26.452-17.526 42.317-17.526h406.06" fill="none" stroke="#46c0ef" stroke-width="53.5" stroke-dasharray="1581.6368278325422,158.72529282363752" stroke-dashoffset="1581.636828"/><path d="M20746.04 147.1l56.43-53.53H20746l.04 53.53z" fill="#46c0ef"/><path d="M20375.66 376.33c114.33 58 175.33 169.33 175.33 169.33s40.34-131.33 229.67-343.33c33.57-37.59 144-138 212-161.33" fill="none"/><path d="M20794.22 312.5v263.1c-.003 15.865-6.314 31.096-17.533 42.314-11.22 11.217-26.452 17.526-42.317 17.526h-393.77c-15.865 0-31.097-6.309-42.317-17.526-11.219-11.218-17.53-26.449-17.533-42.314V180.17c.003-15.865 6.314-31.096 17.533-42.314 11.22-11.217 26.452-17.526 42.317-17.526h406.06" fill="none" stroke="#46c0ef" stroke-width="53.5" stroke-dasharray="1602.660527128718,137.7015935274617" stroke-dashoffset="1602.660527"/><path d="M21525.04 147.1l56.43-53.53H21525l.04 53.53z" fill="#46c0ef"/><path d="M21154.66 376.33c114.33 58 175.33 169.33 175.33 169.33s40.34-131.33 229.67-343.33c33.57-37.59 144-138 212-161.33" fill="none"/><path d="M21573.22 312.5v263.1c-.003 15.865-6.314 31.096-17.533 42.314-11.22 11.217-26.452 17.526-42.317 17.526h-393.77c-15.865 0-31.097-6.309-42.317-17.526-11.219-11.218-17.53-26.449-17.533-42.314V180.17c.003-15.865 6.314-31.096 17.533-42.314 11.22-11.217 26.452-17.526 42.317-17.526h406.06" fill="none" stroke="#46c0ef" stroke-width="53.5" stroke-dasharray="1621.9580986192425,118.40402203693733" stroke-dashoffset="1621.958099"/><path d="M22304.04 147.1l56.43-53.53H22304l.04 53.53z" fill="#46c0ef"/><path d="M21933.66 376.33c114.33 58 175.33 169.33 175.33 169.33s40.34-131.33 229.67-343.33c33.57-37.59 144-138 212-161.33" fill="none"/><path d="M22352.22 312.5v263.1c-.003 15.865-6.314 31.096-17.533 42.314-11.22 11.217-26.452 17.526-42.317 17.526h-393.77c-15.865 0-31.097-6.309-42.317-17.526-11.219-11.218-17.53-26.449-17.533-42.314V180.17c.003-15.865 6.314-31.096 17.533-42.314 11.22-11.217 26.452-17.526 42.317-17.526h406.06" fill="none" stroke="#46c0ef" stroke-width="53.5" stroke-dasharray="1639.5936832747188,100.76843738146096" stroke-dashoffset="1639.593683"/><g><path d="M23083.04 147.1l56.43-53.53H23083l.04 53.53z" fill="#46c0ef"/><path d="M22712.66 376.33c114.33 58 175.33 169.33 175.33 169.33s40.34-131.33 229.67-343.33c33.57-37.59 144-138 212-161.33" fill="none"/><path d="M23131.22 312.5v263.1c-.003 15.865-6.314 31.096-17.533 42.314-11.22 11.217-26.452 17.526-42.317 17.526h-393.77c-15.865 0-31.097-6.309-42.317-17.526-11.219-11.218-17.53-26.449-17.533-42.314V180.17c.003-15.865 6.314-31.096 17.533-42.314 11.22-11.217 26.452-17.526 42.317-17.526h406.06" fill="none" stroke="#46c0ef" stroke-width="53.5" stroke-dasharray="1655.627030639631,84.73509001654882" stroke-dashoffset="1655.627031"/></g><g><path d="M23862.04 147.1l56.43-53.53H23862l.04 53.53z" fill="#46c0ef"/><path d="M23491.66 376.33c114.33 58 175.33 169.33 175.33 169.33s40.34-131.33 229.67-343.33c33.57-37.59 144-138 212-161.33" fill="none"/><path d="M23910.22 312.5v263.1c-.003 15.865-6.314 31.096-17.533 42.314-11.22 11.217-26.452 17.526-42.317 17.526h-393.77c-15.865 0-31.097-6.309-42.317-17.526-11.219-11.218-17.53-26.449-17.533-42.314V180.17c.003-15.865 6.314-31.096 17.533-42.314 11.22-11.217 26.452-17.526 42.317-17.526h406.06" fill="none" stroke="#46c0ef" stroke-width="53.5" stroke-dasharray="1670.1139328039835,70.24818785219615" stroke-dashoffset="1670.113933"/></g><g><path d="M24641.04 147.1l56.43-53.53H24641l.04 53.53z" fill="#46c0ef"/><path d="M24270.66 376.33c114.33 58 175.33 169.33 175.33 169.33s40.34-131.33 229.67-343.33c33.57-37.59 144-138 212-161.33" fill="none"/><path d="M24689.22 312.5v263.1c-.003 15.865-6.314 31.096-17.533 42.314-11.22 11.217-26.452 17.526-42.317 17.526h-393.77c-15.865 0-31.097-6.309-42.317-17.526-11.219-11.218-17.53-26.449-17.533-42.314V180.17c.003-15.865 6.314-31.096 17.533-42.314 11.22-11.217 26.452-17.526 42.317-17.526h406.06" fill="none" stroke="#46c0ef" stroke-width="53.5" stroke-dasharray="1683.1066029391027,57.25551771707707" stroke-dashoffset="1683.106603"/></g><g><path d="M25420.04 147.1l56.43-53.53H25420l.04 53.53z" fill="#46c0ef"/><path d="M25049.66 376.33c114.33 58 175.33 169.33 175.33 169.33s40.34-131.33 229.67-343.33c33.57-37.59 144-138 212-161.33" fill="none"/><path d="M25468.22 312.5v263.1c-.003 15.865-6.314 31.096-17.533 42.314-11.22 11.217-26.452 17.526-42.317 17.526h-393.77c-15.865 0-31.097-6.309-42.317-17.526-11.219-11.218-17.53-26.449-17.533-42.314V180.17c.003-15.865 6.314-31.096 17.533-42.314 11.22-11.217 26.452-17.526 42.317-17.526h406.06" fill="none" stroke="#46c0ef" stroke-width="53.5" stroke-dasharray="1694.6540069971952,45.70811365898448" stroke-dashoffset="1694.654007"/></g><g><path d="M26199.04 147.1l56.43-53.53H26199l.04 53.53z" fill="#46c0ef"/><path d="M25828.66 376.33c114.33 58 175.33 169.33 175.33 169.33s40.34-131.33 229.67-343.33c33.57-37.59 144-138 212-161.33" fill="none"/><path d="M26247.22 312.5v263.1c-.003 15.865-6.314 31.096-17.533 42.314-11.22 11.217-26.452 17.526-42.317 17.526h-393.77c-15.865 0-31.097-6.309-42.317-17.526-11.219-11.218-17.53-26.449-17.533-42.314V180.17c.003-15.865 6.314-31.096 17.533-42.314 11.22-11.217 26.452-17.526 42.317-17.526h406.06" fill="none" stroke="#46c0ef" stroke-width="53.5" stroke-dasharray="1704.8021556176507,35.55996503852915" stroke-dashoffset="1704.802156"/></g><g><path d="M26978.04 147.1l56.43-53.53H26978l.04 53.53z" fill="#46c0ef"/><path d="M26607.66 376.33c114.33 58 175.33 169.33 175.33 169.33s40.34-131.33 229.67-343.33c33.57-37.59 144-138 212-161.33" fill="none"/><path d="M27026.22 312.5v263.1c-.003 15.865-6.314 31.096-17.533 42.314-11.22 11.217-26.452 17.526-42.317 17.526h-393.77c-15.865 0-31.097-6.309-42.317-17.526-11.219-11.218-17.53-26.449-17.533-42.314V180.17c.003-15.865 6.314-31.096 17.533-42.314 11.22-11.217 26.452-17.526 42.317-17.526h406.06" fill="none" stroke="#46c0ef" stroke-width="53.5" stroke-dasharray="1713.5943620462551,26.767758609924563" stroke-dashoffset="1713.594362"/></g><g><path d="M27757.04 147.1l56.43-53.53H27757l.04 53.53z" fill="#46c0ef"/><path d="M27386.66 376.33c114.33 58 175.33 169.33 175.33 169.33s40.34-131.33 229.67-343.33c33.57-37.59 144-138 212-161.33" fill="none"/><path d="M27805.22 312.5v263.1c-.003 15.865-6.314 31.096-17.533 42.314-11.22 11.217-26.452 17.526-42.317 17.526h-393.77c-15.865 0-31.097-6.309-42.317-17.526-11.219-11.218-17.53-26.449-17.533-42.314V180.17c.003-15.865 6.314-31.096 17.533-42.314 11.22-11.217 26.452-17.526 42.317-17.526h406.06" fill="none" stroke="#46c0ef" stroke-width="53.5" stroke-dasharray="1721.07147088345,19.290649772729616" stroke-dashoffset="1721.071471"/></g><g><path d="M28536.04 147.1l56.43-53.53H28536l.04 53.53z" fill="#46c0ef"/><path d="M28165.66 376.33c114.33 58 175.33 169.33 175.33 169.33s40.34-131.33 229.67-343.33c33.57-37.59 144-138 212-161.33" fill="none"/><path d="M28584.22 312.5v263.1c-.003 15.865-6.314 31.096-17.533 42.314-11.22 11.217-26.452 17.526-42.317 17.526h-393.77c-15.865 0-31.097-6.309-42.317-17.526-11.219-11.218-17.53-26.449-17.533-42.314V180.17c.003-15.865 6.314-31.096 17.533-42.314 11.22-11.217 26.452-17.526 42.317-17.526h406.06" fill="none" stroke="#46c0ef" stroke-width="53.5" stroke-dasharray="1727.2720616796075,13.09005897657227" stroke-dashoffset="1727.272062"/></g><g><path d="M29315.04 147.1l56.43-53.53H29315l.04 53.53z" fill="#46c0ef"/><path d="M28944.66 376.33c114.33 58 175.33 169.33 175.33 169.33s40.34-131.33 229.67-343.33c33.57-37.59 144-138 212-161.33" fill="none"/><path d="M29363.22 312.5v263.1c-.003 15.865-6.314 31.096-17.533 42.314-11.22 11.217-26.452 17.526-42.317 17.526h-393.77c-15.865 0-31.097-6.309-42.317-17.526-11.219-11.218-17.53-26.449-17.533-42.314V180.17c.003-15.865 6.314-31.096 17.533-42.314 11.22-11.217 26.452-17.526 42.317-17.526h406.06" fill="none" stroke="#46c0ef" stroke-width="53.5" stroke-dasharray="1732.2326307476435,8.129489908536337" stroke-dashoffset="1732.232631"/></g><g><path d="M30094.04 147.1l56.43-53.53H30094l.04 53.53z" fill="#46c0ef"/><path d="M29723.66 376.33c114.33 58 175.33 169.33 175.33 169.33s40.34-131.33 229.67-343.33c33.57-37.59 144-138 212-161.33" fill="none"/><path d="M30142.22 312.5v263.1c-.003 15.865-6.314 31.096-17.533 42.314-11.22 11.217-26.452 17.526-42.317 17.526h-393.77c-15.865 0-31.097-6.309-42.317-17.526-11.219-11.218-17.53-26.449-17.533-42.314V180.17c.003-15.865 6.314-31.096 17.533-42.314 11.22-11.217 26.452-17.526 42.317-17.526h406.06" fill="none" stroke="#46c0ef" stroke-width="53.5" stroke-dasharray="1735.9877540344826,4.374366621697085" stroke-dashoffset="1735.987754"/></g><g><path d="M30873.04 147.1l56.43-53.53H30873l.04 53.53z" fill="#46c0ef"/><path d="M30502.66 376.33c114.33 58 175.33 169.33 175.33 169.33s40.34-131.33 229.67-343.33c33.57-37.59 144-138 212-161.33" fill="none"/><path d="M30921.22 312.5v263.1c-.003 15.865-6.314 31.096-17.533 42.314-11.22 11.217-26.452 17.526-42.317 17.526h-393.77c-15.865 0-31.097-6.309-42.317-17.526-11.219-11.218-17.53-26.449-17.533-42.314V180.17c.003-15.865 6.314-31.096 17.533-42.314 11.22-11.217 26.452-17.526 42.317-17.526h406.06" fill="none" stroke="#46c0ef" stroke-width="53.5" stroke-dasharray="1738.5702334585696,1.7918871976099835" stroke-dashoffset="1738.570233"/></g><g><path d="M31673.48 312.73l53.47 54.73.14-64.67-53.61 9.94zM31652.04 147.1l56.43-53.53H31652l.04 53.53z" fill="#46c0ef"/><path d="M31281.66 376.33c114.33 58 175.33 169.33 175.33 169.33s40.34-131.33 229.67-343.33c33.57-37.59 144-138 212-161.33" fill="none"/><path d="M31700.22 312.5v263.1c-.003 15.865-6.314 31.096-17.533 42.314-11.22 11.217-26.452 17.526-42.317 17.526h-393.77c-15.865 0-31.097-6.309-42.317-17.526-11.219-11.218-17.53-26.449-17.533-42.314V180.17c.003-15.865 6.314-31.096 17.533-42.314 11.22-11.217 26.452-17.526 42.317-17.526h406.06" fill="none" stroke="#46c0ef" stroke-width="53.5" stroke-dasharray="1740.0112287619886,0.35089189419115524" stroke-dashoffset="1740.011229"/></g><g><path d="M32452.48 312.73l53.47 46.269.14-64.67-53.61 18.401zM32431.04 147.1l56.43-53.53H32431l.04 53.53z" fill="#46c0ef"/><path d="M32060.66 376.33c114.33 58 175.33 169.33 175.33 169.33s40.34-131.33 229.67-343.33c33.57-37.59 144-138 212-161.33" fill="none"/><path d="M32479.22 312.5v263.1c-.003 15.865-6.314 31.096-17.533 42.314-11.22 11.217-26.452 17.526-42.317 17.526h-393.77c-15.865 0-31.097-6.309-42.317-17.526-11.219-11.218-17.53-26.449-17.533-42.314V180.17c.003-15.865 6.314-31.096 17.533-42.314 11.22-11.217 26.452-17.526 42.317-17.526h406.06" fill="none" stroke="#46c0ef" stroke-width="53.5"/></g><g><path d="M33231.48 312.73l53.47 38.525.14-64.67-53.61 26.145zM33210.04 147.1l56.43-53.53H33210l.04 53.53z" fill="#46c0ef"/><path d="M32839.66 376.33c114.33 58 175.33 169.33 175.33 169.33s40.34-131.33 229.67-343.33c33.57-37.59 144-138 212-161.33" fill="none"/><path d="M33258.22 312.5v263.1c-.003 15.865-6.314 31.096-17.533 42.314-11.22 11.217-26.452 17.526-42.317 17.526h-393.77c-15.865 0-31.097-6.309-42.317-17.526-11.219-11.218-17.53-26.449-17.533-42.314V180.17c.003-15.865 6.314-31.096 17.533-42.314 11.22-11.217 26.452-17.526 42.317-17.526h406.06" fill="none" stroke="#46c0ef" stroke-width="53.5"/></g><g><path d="M34010.48 312.73l53.47 31.496.14-64.67-53.61 33.174zM33989.04 147.1l56.43-53.53H33989l.04 53.53z" fill="#46c0ef"/><path d="M33618.66 376.33c114.33 58 175.33 169.33 175.33 169.33s40.34-131.33 229.67-343.33c33.57-37.59 144-138 212-161.33" fill="none"/><path d="M34037.22 312.5v263.1c-.003 15.865-6.314 31.096-17.533 42.314-11.22 11.217-26.452 17.526-42.317 17.526h-393.77c-15.865 0-31.097-6.309-42.317-17.526-11.219-11.218-17.53-26.449-17.533-42.314V180.17c.003-15.865 6.314-31.096 17.533-42.314 11.22-11.217 26.452-17.526 42.317-17.526h406.06" fill="none" stroke="#46c0ef" stroke-width="53.5"/></g><g><path d="M34789.48 312.73l53.47 25.183.14-64.67-53.61 39.487zM34768.04 147.1l56.43-53.53H34768l.04 53.53z" fill="#46c0ef"/><path d="M34397.66 376.33c114.33 58 175.33 169.33 175.33 169.33s40.34-131.33 229.67-343.33c33.57-37.59 144-138 212-161.33" fill="none"/><path d="M34816.22 312.5v263.1c-.003 15.865-6.314 31.096-17.533 42.314-11.22 11.217-26.452 17.526-42.317 17.526h-393.77c-15.865 0-31.097-6.309-42.317-17.526-11.219-11.218-17.53-26.449-17.533-42.314V180.17c.003-15.865 6.314-31.096 17.533-42.314 11.22-11.217 26.452-17.526 42.317-17.526h406.06" fill="none" stroke="#46c0ef" stroke-width="53.5"/></g><g><path d="M35568.48 312.73l53.47 19.586.14-64.67-53.61 45.084zM35547.04 147.1l56.43-53.53H35547l.04 53.53z" fill="#46c0ef"/><path d="M35176.66 376.33c114.33 58 175.33 169.33 175.33 169.33s40.34-131.33 229.67-343.33c33.57-37.59 144-138 212-161.33" fill="none"/><path d="M35595.22 312.5v263.1c-.003 15.865-6.314 31.096-17.533 42.314-11.22 11.217-26.452 17.526-42.317 17.526h-393.77c-15.865 0-31.097-6.309-42.317-17.526-11.219-11.218-17.53-26.449-17.533-42.314V180.17c.003-15.865 6.314-31.096 17.533-42.314 11.22-11.217 26.452-17.526 42.317-17.526h406.06" fill="none" stroke="#46c0ef" stroke-width="53.5"/></g><g><path d="M36347.48 312.73l53.47 14.705.14-64.67-53.61 49.965zM36326.04 147.1l56.43-53.53H36326l.04 53.53z" fill="#46c0ef"/><path d="M35955.66 376.33c114.33 58 175.33 169.33 175.33 169.33s40.34-131.33 229.67-343.33c33.57-37.59 144-138 212-161.33" fill="none"/><path d="M36374.22 312.5v263.1c-.003 15.865-6.314 31.096-17.533 42.314-11.22 11.217-26.452 17.526-42.317 17.526h-393.77c-15.865 0-31.097-6.309-42.317-17.526-11.219-11.218-17.53-26.449-17.533-42.314V180.17c.003-15.865 6.314-31.096 17.533-42.314 11.22-11.217 26.452-17.526 42.317-17.526h406.06" fill="none" stroke="#46c0ef" stroke-width="53.5"/></g><g><path d="M37126.48 312.73l53.47 10.539.14-64.67-53.61 54.131zM37105.04 147.1l56.43-53.53H37105l.04 53.53z" fill="#46c0ef"/><path d="M36734.66 376.33c114.33 58 175.33 169.33 175.33 169.33s40.34-131.33 229.67-343.33c33.57-37.59 144-138 212-161.33" fill="none"/><path d="M37153.22 312.5v263.1c-.003 15.865-6.314 31.096-17.533 42.314-11.22 11.217-26.452 17.526-42.317 17.526h-393.77c-15.865 0-31.097-6.309-42.317-17.526-11.219-11.218-17.53-26.449-17.533-42.314V180.17c.003-15.865 6.314-31.096 17.533-42.314 11.22-11.217 26.452-17.526 42.317-17.526h406.06" fill="none" stroke="#46c0ef" stroke-width="53.5"/></g><g><path d="M37905.48 312.73l53.47 7.089.14-64.67-53.61 57.581zM37884.04 147.1l56.43-53.53H37884l.04 53.53z" fill="#46c0ef"/><path d="M37513.66 376.33c114.33 58 175.33 169.33 175.33 169.33s40.34-131.33 229.67-343.33c33.57-37.59 144-138 212-161.33" fill="none"/><path d="M37932.22 312.5v263.1c-.003 15.865-6.314 31.096-17.533 42.314-11.22 11.217-26.452 17.526-42.317 17.526h-393.77c-15.865 0-31.097-6.309-42.317-17.526-11.219-11.218-17.53-26.449-17.533-42.314V180.17c.003-15.865 6.314-31.096 17.533-42.314 11.22-11.217 26.452-17.526 42.317-17.526h406.06" fill="none" stroke="#46c0ef" stroke-width="53.5"/></g><g><path d="M38684.48 312.73l53.47 4.355.14-64.67-53.61 60.315zM38663.04 147.1l56.43-53.53H38663l.04 53.53z" fill="#46c0ef"/><path d="M38292.66 376.33c114.33 58 175.33 169.33 175.33 169.33s40.34-131.33 229.67-343.33c33.57-37.59 144-138 212-161.33" fill="none"/><path d="M38711.22 312.5v263.1c-.003 15.865-6.314 31.096-17.533 42.314-11.22 11.217-26.452 17.526-42.317 17.526h-393.77c-15.865 0-31.097-6.309-42.317-17.526-11.219-11.218-17.53-26.449-17.533-42.314V180.17c.003-15.865 6.314-31.096 17.533-42.314 11.22-11.217 26.452-17.526 42.317-17.526h406.06" fill="none" stroke="#46c0ef" stroke-width="53.5"/></g><g><path d="M39463.48 312.73l53.47 2.336.14-64.67-53.61 62.334zM39442.04 147.1l56.43-53.53H39442l.04 53.53z" fill="#46c0ef"/><path d="M39071.66 376.33c114.33 58 175.33 169.33 175.33 169.33s40.34-131.33 229.67-343.33c33.57-37.59 144-138 212-161.33" fill="none"/><path d="M39490.22 312.5v263.1c-.003 15.865-6.314 31.096-17.533 42.314-11.22 11.217-26.452 17.526-42.317 17.526h-393.77c-15.865 0-31.097-6.309-42.317-17.526-11.219-11.218-17.53-26.449-17.533-42.314V180.17c.003-15.865 6.314-31.096 17.533-42.314 11.22-11.217 26.452-17.526 42.317-17.526h406.06" fill="none" stroke="#46c0ef" stroke-width="53.5"/></g><g><path d="M40242.48 312.73l53.47 1.034.14-64.67-53.61 63.636zM40221.04 147.1l56.43-53.53H40221l.04 53.53z" fill="#46c0ef"/><path d="M39850.66 376.33c114.33 58 175.33 169.33 175.33 169.33s40.34-131.33 229.67-343.33c33.57-37.59 144-138 212-161.33" fill="none"/><path d="M40269.22 312.5v263.1c-.003 15.865-6.314 31.096-17.533 42.314-11.22 11.217-26.452 17.526-42.317 17.526h-393.77c-15.865 0-31.097-6.309-42.317-17.526-11.219-11.218-17.53-26.449-17.533-42.314V180.17c.003-15.865 6.314-31.096 17.533-42.314 11.22-11.217 26.452-17.526 42.317-17.526h406.06" fill="none" stroke="#46c0ef" stroke-width="53.5"/></g><g><path d="M41021.48 312.73l53.47.447.14-64.67-53.61 64.223zM41000.04 147.1l56.43-53.53H41000l.04 53.53z" fill="#46c0ef"/><path d="M40629.66 376.33c114.33 58 175.33 169.33 175.33 169.33s40.34-131.33 229.67-343.33c33.57-37.59 144-138 212-161.33" fill="none"/><path d="M41048.22 312.5v263.1c-.003 15.865-6.314 31.096-17.533 42.314-11.22 11.217-26.452 17.526-42.317 17.526h-393.77c-15.865 0-31.097-6.309-42.317-17.526-11.219-11.218-17.53-26.449-17.533-42.314V180.17c.003-15.865 6.314-31.096 17.533-42.314 11.22-11.217 26.452-17.526 42.317-17.526h406.06" fill="none" stroke="#46c0ef" stroke-width="53.5"/></g><g><path d="M41800.48 312.73l53.47.41.14-64.67-53.61 64.26zM41779.04 147.1l56.43-53.53H41779l.04 53.53z" fill="#46c0ef"/><path d="M41408.66 376.33c114.33 58 175.33 169.33 175.33 169.33s40.34-131.33 229.67-343.33c33.57-37.59 144-138 212-161.33" fill="none"/><path d="M41827.22 312.5v263.1c-.003 15.865-6.314 31.096-17.533 42.314-11.22 11.217-26.452 17.526-42.317 17.526h-393.77c-15.865 0-31.097-6.309-42.317-17.526-11.219-11.218-17.53-26.449-17.533-42.314V180.17c.003-15.865 6.314-31.096 17.533-42.314 11.22-11.217 26.452-17.526 42.317-17.526h406.06" fill="none" stroke="#46c0ef" stroke-width="53.5"/></g><g><path d="M42579.48 312.73l53.47.41.14-64.67-53.61 64.26zM42558.04 147.1l56.43-53.53H42558l.04 53.53z" fill="#46c0ef"/><path d="M42187.66 376.33c114.33 58 175.33 169.33 175.33 169.33s40.34-131.33 229.67-343.33c33.57-37.59 144-138 212-161.33" fill="none"/><path d="M42606.22 312.5v263.1c-.003 15.865-6.314 31.096-17.533 42.314-11.22 11.217-26.452 17.526-42.317 17.526h-393.77c-15.865 0-31.097-6.309-42.317-17.526-11.219-11.218-17.53-26.449-17.533-42.314V180.17c.003-15.865 6.314-31.096 17.533-42.314 11.22-11.217 26.452-17.526 42.317-17.526h406.06" fill="none" stroke="#46c0ef" stroke-width="53.5"/></g><g><path d="M43358.48 312.73l53.47.41.14-64.67-53.61 64.26zM43337.04 147.1l56.43-53.53H43337l.04 53.53z" fill="#46c0ef"/><path d="M42966.66 376.33c114.33 58 175.33 169.33 175.33 169.33s40.34-131.33 229.67-343.33c33.57-37.59 144-138 212-161.33" fill="none"/><path d="M43385.22 312.5v263.1c-.003 15.865-6.314 31.096-17.533 42.314-11.22 11.217-26.452 17.526-42.317 17.526h-393.77c-15.865 0-31.097-6.309-42.317-17.526-11.219-11.218-17.53-26.449-17.533-42.314V180.17c.003-15.865 6.314-31.096 17.533-42.314 11.22-11.217 26.452-17.526 42.317-17.526h406.06" fill="none" stroke="#46c0ef" stroke-width="53.5"/></g><g><path d="M44137.48 312.73l53.47.41.14-64.67-53.61 64.26zM44116.04 147.1l56.43-53.53H44116l.04 53.53z" fill="#46c0ef"/><path d="M43745.66 376.33c114.33 58 175.33 169.33 175.33 169.33s40.34-131.33 229.67-343.33c33.57-37.59 144-138 212-161.33" fill="none"/><path d="M44164.22 312.5v263.1c-.003 15.865-6.314 31.096-17.533 42.314-11.22 11.217-26.452 17.526-42.317 17.526h-393.77c-15.865 0-31.097-6.309-42.317-17.526-11.219-11.218-17.53-26.449-17.533-42.314V180.17c.003-15.865 6.314-31.096 17.533-42.314 11.22-11.217 26.452-17.526 42.317-17.526h406.06" fill="none" stroke="#46c0ef" stroke-width="53.5"/></g><g><path d="M44916.48 312.73l53.47.41.14-64.67-53.61 64.26zM44895.04 147.1l56.43-53.53H44895l.04 53.53z" fill="#46c0ef"/><path d="M44524.66 376.33c114.33 58 175.33 169.33 175.33 169.33s40.34-131.33 229.67-343.33c33.57-37.59 144-138 212-161.33" fill="none"/><path d="M44943.22 312.5v263.1c-.003 15.865-6.314 31.096-17.533 42.314-11.22 11.217-26.452 17.526-42.317 17.526h-393.77c-15.865 0-31.097-6.309-42.317-17.526-11.219-11.218-17.53-26.449-17.533-42.314V180.17c.003-15.865 6.314-31.096 17.533-42.314 11.22-11.217 26.452-17.526 42.317-17.526h406.06" fill="none" stroke="#46c0ef" stroke-width="53.5"/></g><g><path d="M45695.48 312.73l53.47.41.14-64.67-53.61 64.26zM45674.04 147.1l56.43-53.53H45674l.04 53.53z" fill="#46c0ef"/><path d="M45303.66 376.33c114.33 58 175.33 169.33 175.33 169.33s40.34-131.33 229.67-343.33c33.57-37.59 144-138 212-161.33" fill="none" stroke="#43c0ef" stroke-width="82" stroke-dasharray="79.88702813020133,850.3884747455706" stroke-dashoffset="930.275503" stroke-linecap="round" stroke-linejoin="round"/><path d="M45722.22 312.5v263.1c-.003 15.865-6.314 31.096-17.533 42.314-11.22 11.217-26.452 17.526-42.317 17.526h-393.77c-15.865 0-31.097-6.309-42.317-17.526-11.219-11.218-17.53-26.449-17.533-42.314V180.17c.003-15.865 6.314-31.096 17.533-42.314 11.22-11.217 26.452-17.526 42.317-17.526h406.06" fill="none" stroke="#46c0ef" stroke-width="53.5"/></g><g><path d="M46474.48 312.73l53.47.41.14-64.67-53.61 64.26zM46453.04 147.1l56.43-53.53H46453l.04 53.53z" fill="#46c0ef"/><path d="M46082.66 376.33c114.33 58 175.33 169.33 175.33 169.33s40.34-131.33 229.67-343.33c33.57-37.59 144-138 212-161.33" fill="none" stroke="#43c0ef" stroke-width="82" stroke-dasharray="187.6958692587503,742.5796336170217" stroke-dashoffset="930.275503" stroke-linecap="round" stroke-linejoin="round"/><path d="M46501.22 312.5v263.1c-.003 15.865-6.314 31.096-17.533 42.314-11.22 11.217-26.452 17.526-42.317 17.526h-393.77c-15.865 0-31.097-6.309-42.317-17.526-11.219-11.218-17.53-26.449-17.533-42.314V180.17c.003-15.865 6.314-31.096 17.533-42.314 11.22-11.217 26.452-17.526 42.317-17.526h406.06" fill="none" stroke="#46c0ef" stroke-width="53.5"/></g><g><path d="M47253.48 312.73l53.47.41.14-64.67-53.61 64.26zM47232.04 147.1l56.43-53.53H47232l.04 53.53z" fill="#46c0ef"/><path d="M46861.66 376.33c114.33 58 175.33 169.33 175.33 169.33s40.34-131.33 229.67-343.33c33.57-37.59 144-138 212-161.33" fill="none" stroke="#43c0ef" stroke-width="82" stroke-dasharray="276.7703496070933,653.5051532686787" stroke-dashoffset="930.275503" stroke-linecap="round" stroke-linejoin="round"/><path d="M47280.22 312.5v263.1c-.003 15.865-6.314 31.096-17.533 42.314-11.22 11.217-26.452 17.526-42.317 17.526h-393.77c-15.865 0-31.097-6.309-42.317-17.526-11.219-11.218-17.53-26.449-17.533-42.314V180.17c.003-15.865 6.314-31.096 17.533-42.314 11.22-11.217 26.452-17.526 42.317-17.526h406.06" fill="none" stroke="#46c0ef" stroke-width="53.5"/></g><g><path d="M48032.48 312.73l53.47.41.14-64.67-53.61 64.26zM48011.04 147.1l56.43-53.53H48011l.04 53.53z" fill="#46c0ef"/><path d="M47640.66 376.33c114.33 58 175.33 169.33 175.33 169.33s40.34-131.33 229.67-343.33c33.57-37.59 144-138 212-161.33" fill="none" stroke="#43c0ef" stroke-width="82" stroke-dasharray="353.53940085484265,576.7361020209293" stroke-dashoffset="930.275503" stroke-linecap="round" stroke-linejoin="round"/><path d="M48059.22 312.5v263.1c-.003 15.865-6.314 31.096-17.533 42.314-11.22 11.217-26.452 17.526-42.317 17.526h-393.77c-15.865 0-31.097-6.309-42.317-17.526-11.219-11.218-17.53-26.449-17.533-42.314V180.17c.003-15.865 6.314-31.096 17.533-42.314 11.22-11.217 26.452-17.526 42.317-17.526h406.06" fill="none" stroke="#46c0ef" stroke-width="53.5"/></g><g><path d="M48811.48 312.73l53.47.41.14-64.67-53.61 64.26zM48790.04 147.1l56.43-53.53H48790l.04 53.53z" fill="#46c0ef"/><path d="M48419.66 376.33c114.33 58 175.33 169.33 175.33 169.33s40.34-131.33 229.67-343.33c33.57-37.59 144-138 212-161.33" fill="none" stroke="#43c0ef" stroke-width="82" stroke-dasharray="421.02427046553163,509.2512324102404" stroke-dashoffset="930.275503" stroke-linecap="round" stroke-linejoin="round"/><path d="M48838.22 312.5v263.1c-.003 15.865-6.314 31.096-17.533 42.314-11.22 11.217-26.452 17.526-42.317 17.526h-393.77c-15.865 0-31.097-6.309-42.317-17.526-11.219-11.218-17.53-26.449-17.533-42.314V180.17c.003-15.865 6.314-31.096 17.533-42.314 11.22-11.217 26.452-17.526 42.317-17.526h406.06" fill="none" stroke="#46c0ef" stroke-width="53.5"/></g><g><path d="M49590.48 312.73l53.47.41.14-64.67-53.61 64.26zM49569.04 147.1l56.43-53.53H49569l.04 53.53z" fill="#46c0ef"/><path d="M49198.66 376.33c114.33 58 175.33 169.33 175.33 169.33s40.34-131.33 229.67-343.33c33.57-37.59 144-138 212-161.33" fill="none" stroke="#43c0ef" stroke-width="82" stroke-dasharray="481.02871441247555,449.2467884632964" stroke-dashoffset="930.275503" stroke-linecap="round" stroke-linejoin="round"/><path d="M49617.22 312.5v263.1c-.003 15.865-6.314 31.096-17.533 42.314-11.22 11.217-26.452 17.526-42.317 17.526h-393.77c-15.865 0-31.097-6.309-42.317-17.526-11.219-11.218-17.53-26.449-17.533-42.314V180.17c.003-15.865 6.314-31.096 17.533-42.314 11.22-11.217 26.452-17.526 42.317-17.526h406.06" fill="none" stroke="#46c0ef" stroke-width="53.5"/></g><g><path d="M50369.48 312.73l53.47.41.14-64.67-53.61 64.26zM50348.04 147.1l56.43-53.53H50348l.04 53.53z" fill="#46c0ef"/><path d="M49977.66 376.33c114.33 58 175.33 169.33 175.33 169.33s40.34-131.33 229.67-343.33c33.57-37.59 144-138 212-161.33" fill="none" stroke="#43c0ef" stroke-width="82" stroke-dasharray="534.7631143516626,395.5123885241094" stroke-dashoffset="930.275503" stroke-linecap="round" stroke-linejoin="round"/><path d="M50396.22 312.5v263.1c-.003 15.865-6.314 31.096-17.533 42.314-11.22 11.217-26.452 17.526-42.317 17.526h-393.77c-15.865 0-31.097-6.309-42.317-17.526-11.219-11.218-17.53-26.449-17.533-42.314V180.17c.003-15.865 6.314-31.096 17.533-42.314 11.22-11.217 26.452-17.526 42.317-17.526h406.06" fill="none" stroke="#46c0ef" stroke-width="53.5"/></g><g><path d="M51148.48 312.73l53.47.41.14-64.67-53.61 64.26zM51127.04 147.1l56.43-53.53H51127l.04 53.53z" fill="#46c0ef"/><path d="M50756.66 376.33c114.33 58 175.33 169.33 175.33 169.33s40.34-131.33 229.67-343.33c33.57-37.59 144-138 212-161.33" fill="none" stroke="#43c0ef" stroke-width="82" stroke-dasharray="583.0998991039284,347.17560377184356" stroke-dashoffset="930.275503" stroke-linecap="round" stroke-linejoin="round"/><path d="M51175.22 312.5v263.1c-.003 15.865-6.314 31.096-17.533 42.314-11.22 11.217-26.452 17.526-42.317 17.526h-393.77c-15.865 0-31.097-6.309-42.317-17.526-11.219-11.218-17.53-26.449-17.533-42.314V180.17c.003-15.865 6.314-31.096 17.533-42.314 11.22-11.217 26.452-17.526 42.317-17.526h406.06" fill="none" stroke="#46c0ef" stroke-width="53.5"/></g><g><path d="M51927.48 312.73l53.47.41.14-64.67-53.61 64.26zM51906.04 147.1l56.43-53.53H51906l.04 53.53z" fill="#46c0ef"/><path d="M51535.66 376.33c114.33 58 175.33 169.33 175.33 169.33s40.34-131.33 229.67-343.33c33.57-37.59 144-138 212-161.33" fill="none" stroke="#43c0ef" stroke-width="82" stroke-dasharray="626.6993747548465,303.5761281209255" stroke-dashoffset="930.275503" stroke-linecap="round" stroke-linejoin="round"/><path d="M51954.22 312.5v263.1c-.003 15.865-6.314 31.096-17.533 42.314-11.22 11.217-26.452 17.526-42.317 17.526h-393.77c-15.865 0-31.097-6.309-42.317-17.526-11.219-11.218-17.53-26.449-17.533-42.314V180.17c.003-15.865 6.314-31.096 17.533-42.314 11.22-11.217 26.452-17.526 42.317-17.526h406.06" fill="none" stroke="#46c0ef" stroke-width="53.5"/></g><g><path d="M52706.48 312.73l53.47.41.14-64.67-53.61 64.26zM52685.04 147.1l56.43-53.53H52685l.04 53.53z" fill="#46c0ef"/><path d="M52314.66 376.33c114.33 58 175.33 169.33 175.33 169.33s40.34-131.33 229.67-343.33c33.57-37.59 144-138 212-161.33" fill="none" stroke="#43c0ef" stroke-width="82" stroke-dasharray="666.0794421901311,264.1960606856409" stroke-dashoffset="930.275503" stroke-linecap="round" stroke-linejoin="round"/><path d="M52733.22 312.5v263.1c-.003 15.865-6.314 31.096-17.533 42.314-11.22 11.217-26.452 17.526-42.317 17.526h-393.77c-15.865 0-31.097-6.309-42.317-17.526-11.219-11.218-17.53-26.449-17.533-42.314V180.17c.003-15.865 6.314-31.096 17.533-42.314 11.22-11.217 26.452-17.526 42.317-17.526h406.06" fill="none" stroke="#46c0ef" stroke-width="53.5"/></g><g><path d="M53485.48 312.73l53.47.41.14-64.67-53.61 64.26zM53464.04 147.1l56.43-53.53H53464l.04 53.53z" fill="#46c0ef"/><path d="M53093.66 376.33c114.33 58 175.33 169.33 175.33 169.33s40.34-131.33 229.67-343.33c33.57-37.59 144-138 212-161.33" fill="none" stroke="#43c0ef" stroke-width="82" stroke-dasharray="701.657538561861,228.61796431391096" stroke-dashoffset="930.275503" stroke-linecap="round" stroke-linejoin="round"/><path d="M53512.22 312.5v263.1c-.003 15.865-6.314 31.096-17.533 42.314-11.22 11.217-26.452 17.526-42.317 17.526h-393.77c-15.865 0-31.097-6.309-42.317-17.526-11.219-11.218-17.53-26.449-17.533-42.314V180.17c.003-15.865 6.314-31.096 17.533-42.314 11.22-11.217 26.452-17.526 42.317-17.526h406.06" fill="none" stroke="#46c0ef" stroke-width="53.5"/></g><g><path d="M54264.48 312.73l53.47.41.14-64.67-53.61 64.26zM54243.04 147.1l56.43-53.53H54243l.04 53.53z" fill="#46c0ef"/><path d="M53872.66 376.33c114.33 58 175.33 169.33 175.33 169.33s40.34-131.33 229.67-343.33c33.57-37.59 144-138 212-161.33" fill="none" stroke="#43c0ef" stroke-width="82" stroke-dasharray="733.7774636467758,196.49803922899613" stroke-dashoffset="930.275503" stroke-linecap="round" stroke-linejoin="round"/><path d="M54291.22 312.5v263.1c-.003 15.865-6.314 31.096-17.533 42.314-11.22 11.217-26.452 17.526-42.317 17.526h-393.77c-15.865 0-31.097-6.309-42.317-17.526-11.219-11.218-17.53-26.449-17.533-42.314V180.17c.003-15.865 6.314-31.096 17.533-42.314 11.22-11.217 26.452-17.526 42.317-17.526h406.06" fill="none" stroke="#46c0ef" stroke-width="53.5"/></g><g><path d="M55043.48 312.73l53.47.41.14-64.67-53.61 64.26zM55022.04 147.1l56.43-53.53H55022l.04 53.53z" fill="#46c0ef"/><path d="M54651.66 376.33c114.33 58 175.33 169.33 175.33 169.33s40.34-131.33 229.67-343.33c33.57-37.59 144-138 212-161.33" fill="none" stroke="#43c0ef" stroke-width="82" stroke-dasharray="762.7273747699936,167.54812810577837" stroke-dashoffset="930.275503" stroke-linecap="round" stroke-linejoin="round"/><path d="M55070.22 312.5v263.1c-.003 15.865-6.314 31.096-17.533 42.314-11.22 11.217-26.452 17.526-42.317 17.526h-393.77c-15.865 0-31.097-6.309-42.317-17.526-11.219-11.218-17.53-26.449-17.533-42.314V180.17c.003-15.865 6.314-31.096 17.533-42.314 11.22-11.217 26.452-17.526 42.317-17.526h406.06" fill="none" stroke="#46c0ef" stroke-width="53.5"/></g><g><path d="M55822.48 312.73l53.47.41.14-64.67-53.61 64.26zM55801.04 147.1l56.43-53.53H55801l.04 53.53z" fill="#46c0ef"/><path d="M55430.66 376.33c114.33 58 175.33 169.33 175.33 169.33s40.34-131.33 229.67-343.33c33.57-37.59 144-138 212-161.33" fill="none" stroke="#43c0ef" stroke-width="82" stroke-dasharray="788.752326728662,141.52317614710998" stroke-dashoffset="930.275503" stroke-linecap="round" stroke-linejoin="round"/><path d="M55849.22 312.5v263.1c-.003 15.865-6.314 31.096-17.533 42.314-11.22 11.217-26.452 17.526-42.317 17.526h-393.77c-15.865 0-31.097-6.309-42.317-17.526-11.219-11.218-17.53-26.449-17.533-42.314V180.17c.003-15.865 6.314-31.096 17.533-42.314 11.22-11.217 26.452-17.526 42.317-17.526h406.06" fill="none" stroke="#46c0ef" stroke-width="53.5"/></g><g><path d="M56601.48 312.73l53.47.41.14-64.67-53.61 64.26zM56580.04 147.1l56.43-53.53H56580l.04 53.53z" fill="#46c0ef"/><path d="M56209.66 376.33c114.33 58 175.33 169.33 175.33 169.33s40.34-131.33 229.67-343.33c33.57-37.59 144-138 212-161.33" fill="none" stroke="#43c0ef" stroke-width="82" stroke-dasharray="812.0632879537324,118.21221492203964" stroke-dashoffset="930.275503" stroke-linecap="round" stroke-linejoin="round"/><path d="M56628.22 312.5v263.1c-.003 15.865-6.314 31.096-17.533 42.314-11.22 11.217-26.452 17.526-42.317 17.526h-393.77c-15.865 0-31.097-6.309-42.317-17.526-11.219-11.218-17.53-26.449-17.533-42.314V180.17c.003-15.865 6.314-31.096 17.533-42.314 11.22-11.217 26.452-17.526 42.317-17.526h406.06" fill="none" stroke="#46c0ef" stroke-width="53.5"/></g><g><path d="M57380.48 312.73l53.47.41.14-64.67-53.61 64.26zM57359.04 147.1l56.43-53.53H57359l.04 53.53z" fill="#46c0ef"/><path d="M56988.66 376.33c114.33 58 175.33 169.33 175.33 169.33s40.34-131.33 229.67-343.33c33.57-37.59 144-138 212-161.33" fill="none" stroke="#43c0ef" stroke-width="82" stroke-dasharray="832.8437948400299,97.4317080357421" stroke-dashoffset="930.275503" stroke-linecap="round" stroke-linejoin="round"/><path d="M57407.22 312.5v263.1c-.003 15.865-6.314 31.096-17.533 42.314-11.22 11.217-26.452 17.526-42.317 17.526h-393.77c-15.865 0-31.097-6.309-42.317-17.526-11.219-11.218-17.53-26.449-17.533-42.314V180.17c.003-15.865 6.314-31.096 17.533-42.314 11.22-11.217 26.452-17.526 42.317-17.526h406.06" fill="none" stroke="#46c0ef" stroke-width="53.5"/></g><g><path d="M58159.48 312.73l53.47.41.14-64.67-53.61 64.26zM58138.04 147.1l56.43-53.53H58138l.04 53.53z" fill="#46c0ef"/><path d="M57767.66 376.33c114.33 58 175.33 169.33 175.33 169.33s40.34-131.33 229.67-343.33c33.57-37.59 144-138 212-161.33" fill="none" stroke="#43c0ef" stroke-width="82" stroke-dasharray="851.2549732139925,79.02052966177956" stroke-dashoffset="930.275503" stroke-linecap="round" stroke-linejoin="round"/><path d="M58186.22 312.5v263.1c-.003 15.865-6.314 31.096-17.533 42.314-11.22 11.217-26.452 17.526-42.317 17.526h-393.77c-15.865 0-31.097-6.309-42.317-17.526-11.219-11.218-17.53-26.449-17.533-42.314V180.17c.003-15.865 6.314-31.096 17.533-42.314 11.22-11.217 26.452-17.526 42.317-17.526h406.06" fill="none" stroke="#46c0ef" stroke-width="53.5"/></g><g><path d="M58938.48 312.73l53.47.41.14-64.67-53.61 64.26zM58917.04 147.1l56.43-53.53H58917l.04 53.53z" fill="#46c0ef"/><path d="M58546.66 376.33c114.33 58 175.33 169.33 175.33 169.33s40.34-131.33 229.67-343.33c33.57-37.59 144-138 212-161.33" fill="none" stroke="#43c0ef" stroke-width="82" stroke-dasharray="867.4394007041276,62.83610217164437" stroke-dashoffset="930.275503" stroke-linecap="round" stroke-linejoin="round"/><path d="M58965.22 312.5v263.1c-.003 15.865-6.314 31.096-17.533 42.314-11.22 11.217-26.452 17.526-42.317 17.526h-393.77c-15.865 0-31.097-6.309-42.317-17.526-11.219-11.218-17.53-26.449-17.533-42.314V180.17c.003-15.865 6.314-31.096 17.533-42.314 11.22-11.217 26.452-17.526 42.317-17.526h406.06" fill="none" stroke="#46c0ef" stroke-width="53.5"/></g><g><path d="M59717.48 312.73l53.47.41.14-64.67-53.61 64.26zM59696.04 147.1l56.43-53.53H59696l.04 53.53z" fill="#46c0ef"/><path d="M59325.66 376.33c114.33 58 175.33 169.33 175.33 169.33s40.34-131.33 229.67-343.33c33.57-37.59 144-138 212-161.33" fill="none" stroke="#43c0ef" stroke-width="82" stroke-dasharray="881.524127350706,48.75137552506603" stroke-dashoffset="930.275503" stroke-linecap="round" stroke-linejoin="round"/><path d="M59744.22 312.5v263.1c-.003 15.865-6.314 31.096-17.533 42.314-11.22 11.217-26.452 17.526-42.317 17.526h-393.77c-15.865 0-31.097-6.309-42.317-17.526-11.219-11.218-17.53-26.449-17.533-42.314V180.17c.003-15.865 6.314-31.096 17.533-42.314 11.22-11.217 26.452-17.526 42.317-17.526h406.06" fill="none" stroke="#46c0ef" stroke-width="53.5"/></g><g><path d="M60496.48 312.73l53.47.41.14-64.67-53.61 64.26zM60475.04 147.1l56.43-53.53H60475l.04 53.53z" fill="#46c0ef"/><path d="M60104.66 376.33c114.33 58 175.33 169.33 175.33 169.33s40.34-131.33 229.67-343.33c33.57-37.59 144-138 212-161.33" fill="none" stroke="#43c0ef" stroke-width="82" stroke-dasharray="893.6230726363551,36.65243023941683" stroke-dashoffset="930.275503" stroke-linecap="round" stroke-linejoin="round"/><path d="M60523.22 312.5v263.1c-.003 15.865-6.314 31.096-17.533 42.314-11.22 11.217-26.452 17.526-42.317 17.526h-393.77c-15.865 0-31.097-6.309-42.317-17.526-11.219-11.218-17.53-26.449-17.533-42.314V180.17c.003-15.865 6.314-31.096 17.533-42.314 11.22-11.217 26.452-17.526 42.317-17.526h406.06" fill="none" stroke="#46c0ef" stroke-width="53.5"/></g><g><path d="M61275.48 312.73l53.47.41.14-64.67-53.61 64.26zM61254.04 147.1l56.43-53.53H61254l.04 53.53z" fill="#46c0ef"/><path d="M60883.66 376.33c114.33 58 175.33 169.33 175.33 169.33s40.34-131.33 229.67-343.33c33.57-37.59 144-138 212-161.33" fill="none" stroke="#43c0ef" stroke-width="82" stroke-dasharray="903.8389524114393,26.43655046433267" stroke-dashoffset="930.275503" stroke-linecap="round" stroke-linejoin="round"/><path d="M61302.22 312.5v263.1c-.003 15.865-6.314 31.096-17.533 42.314-11.22 11.217-26.452 17.526-42.317 17.526h-393.77c-15.865 0-31.097-6.309-42.317-17.526-11.219-11.218-17.53-26.449-17.533-42.314V180.17c.003-15.865 6.314-31.096 17.533-42.314 11.22-11.217 26.452-17.526 42.317-17.526h406.06" fill="none" stroke="#46c0ef" stroke-width="53.5"/></g><g><path d="M62054.48 312.73l53.47.41.14-64.67-53.61 64.26zM62033.04 147.1l56.43-53.53H62033l.04 53.53z" fill="#46c0ef"/><path d="M61662.66 376.33c114.33 58 175.33 169.33 175.33 169.33s40.34-131.33 229.67-343.33c33.57-37.59 144-138 212-161.33" fill="none" stroke="#43c0ef" stroke-width="82" stroke-dasharray="912.2648458685985,18.010657007173414" stroke-dashoffset="930.275503" stroke-linecap="round" stroke-linejoin="round"/><path d="M62081.22 312.5v263.1c-.003 15.865-6.314 31.096-17.533 42.314-11.22 11.217-26.452 17.526-42.317 17.526h-393.77c-15.865 0-31.097-6.309-42.317-17.526-11.219-11.218-17.53-26.449-17.533-42.314V180.17c.003-15.865 6.314-31.096 17.533-42.314 11.22-11.217 26.452-17.526 42.317-17.526h406.06" fill="none" stroke="#46c0ef" stroke-width="53.5"/></g><g><path d="M62833.48 312.73l53.47.41.14-64.67-53.61 64.26zM62812.04 147.1l56.43-53.53H62812l.04 53.53z" fill="#46c0ef"/><path d="M62441.66 376.33c114.33 58 175.33 169.33 175.33 169.33s40.34-131.33 229.67-343.33c33.57-37.59 144-138 212-161.33" fill="none" stroke="#43c0ef" stroke-width="82" stroke-dasharray="918.9854830580612,11.290019817710753" stroke-dashoffset="930.275503" stroke-linecap="round" stroke-linejoin="round"/><path d="M62860.22 312.5v263.1c-.003 15.865-6.314 31.096-17.533 42.314-11.22 11.217-26.452 17.526-42.317 17.526h-393.77c-15.865 0-31.097-6.309-42.317-17.526-11.219-11.218-17.53-26.449-17.533-42.314V180.17c.003-15.865 6.314-31.096 17.533-42.314 11.22-11.217 26.452-17.526 42.317-17.526h406.06" fill="none" stroke="#46c0ef" stroke-width="53.5"/></g><g><path d="M63612.48 312.73l53.47.41.14-64.67-53.61 64.26zM63591.04 147.1l56.43-53.53H63591l.04 53.53z" fill="#46c0ef"/><path d="M63220.66 376.33c114.33 58 175.33 169.33 175.33 169.33s40.34-131.33 229.67-343.33c33.57-37.59 144-138 212-161.33" fill="none" stroke="#43c0ef" stroke-width="82" stroke-dasharray="924.0783127113768,6.19719016439517" stroke-dashoffset="930.275503" stroke-linecap="round" stroke-linejoin="round"/><path d="M63639.22 312.5v263.1c-.003 15.865-6.314 31.096-17.533 42.314-11.22 11.217-26.452 17.526-42.317 17.526h-393.77c-15.865 0-31.097-6.309-42.317-17.526-11.219-11.218-17.53-26.449-17.533-42.314V180.17c.003-15.865 6.314-31.096 17.533-42.314 11.22-11.217 26.452-17.526 42.317-17.526h406.06" fill="none" stroke="#46c0ef" stroke-width="53.5"/></g><g><path d="M64391.48 312.73l53.47.41.14-64.67-53.61 64.26zM64370.04 147.1l56.43-53.53H64370l.04 53.53z" fill="#46c0ef"/><path d="M63999.66 376.33c114.33 58 175.33 169.33 175.33 169.33s40.34-131.33 229.67-343.33c33.57-37.59 144-138 212-161.33" fill="none" stroke="#43c0ef" stroke-width="82" stroke-dasharray="927.6143953989136,2.6611074768582883" stroke-dashoffset="930.275503" stroke-linecap="round" stroke-linejoin="round"/><path d="M64418.22 312.5v263.1c-.003 15.865-6.314 31.096-17.533 42.314-11.22 11.217-26.452 17.526-42.317 17.526h-393.77c-15.865 0-31.097-6.309-42.317-17.526-11.219-11.218-17.53-26.449-17.533-42.314V180.17c.003-15.865 6.314-31.096 17.533-42.314 11.22-11.217 26.452-17.526 42.317-17.526h406.06" fill="none" stroke="#46c0ef" stroke-width="53.5"/></g><g><path d="M65170.48 312.73l53.47.41.14-64.67-53.61 64.26zM65149.04 147.1l56.43-53.53H65149l.04 53.53z" fill="#46c0ef"/><path d="M64778.66 376.33c114.33 58 175.33 169.33 175.33 169.33s40.34-131.33 229.67-343.33c33.57-37.59 144-138 212-161.33" fill="none" stroke="#43c0ef" stroke-width="82" stroke-dasharray="929.6591563872646,0.6163464885073259" stroke-dashoffset="930.275503" stroke-linecap="round" stroke-linejoin="round"/><path d="M65197.22 312.5v263.1c-.003 15.865-6.314 31.096-17.533 42.314-11.22 11.217-26.452 17.526-42.317 17.526h-393.77c-15.865 0-31.097-6.309-42.317-17.526-11.219-11.218-17.53-26.449-17.533-42.314V180.17c.003-15.865 6.314-31.096 17.533-42.314 11.22-11.217 26.452-17.526 42.317-17.526h406.06" fill="none" stroke="#46c0ef" stroke-width="53.5"/></g><g><path d="M65949.48 312.73l53.47.41.14-64.67-53.61 64.26zM65928.04 147.1l56.43-53.53H65928l.04 53.53z" fill="#46c0ef"/><path d="M65557.66 376.33c114.33 58 175.33 169.33 175.33 169.33s40.34-131.33 229.67-343.33c33.57-37.59 144-138 212-161.33" fill="none" stroke="#43c0ef" stroke-width="82" stroke-linecap="round" stroke-linejoin="round"/><path d="M65976.22 312.5v263.1c-.003 15.865-6.314 31.096-17.533 42.314-11.22 11.217-26.452 17.526-42.317 17.526h-393.77c-15.865 0-31.097-6.309-42.317-17.526-11.219-11.218-17.53-26.449-17.533-42.314V180.17c.003-15.865 6.314-31.096 17.533-42.314 11.22-11.217 26.452-17.526 42.317-17.526h406.06" fill="none" stroke="#46c0ef" stroke-width="53.5"/></g></svg>