<svg id="Logo_copy" data-name="Logo copy" xmlns="http://www.w3.org/2000/svg" viewBox="0 0 1880.1 617.3"><defs><style>.cls-1{fill:#b3b4b5}</style></defs><path class="cls-1" d="M781 836q12 2 9 17-3 10-12 24a116 116 0 01-24 26l-31 23q-17 12-39 24-22 13-47 24a388 388 0 01-52 18c-38 11-73 14-104 8q-36-6-57-33a71 71 0 01-14-61c7-35 30-66 67-94q50-37 112-54c26-7 47-10 64-8q21 2 32 15 13 15 8 37c-6 23-27 46-64 70q-8 6-15 9l-9 6c-18 10-43 20-76 31q12 11 23 12a65 65 0 0022 0 191 191 0 0024-6l30-12 33-15c26-13 82-94 102-109 11-8-9 53 6 49a37 37 0 0112-1zm-267 43l13-6 12-5 59-31c6-4 8-8 8-9a19 19 0 000-7 23 23 0 00-2-7q-3-8-9-9a40 40 0 00-14 1 85 85 0 00-16 6 106 106 0 00-31 21c-10 10-15 17-17 25l-3 21z" transform="translate(-20 -468)"/><path class="cls-1" d="M977 851q-1 25 13 25c23-1 54-31 93-66l8 5q23-16 37-17c9 0 15 1 18 4s3 7 3 13q-1 22-23 47c-22 27-51 52-87 76-41 27-77 40-107 40-21 0-34-12-39-37a161 161 0 01-2-19q-2-21-5-24t-11 1a116 116 0 00-19 10l-24 17-80 58c-16 11-26 17-32 17a35 35 0 01-16-4 49 49 0 01-13-10q-12-13-12-26c1-52 15-98 36-138 14-28 30-47 50-59a74 74 0 0134-10c22-2 33 6 32 22 0 10-8 26-19 49l-8 16-8 19q1 8 6 7 6 0 17-9l46-39 23-19c28-21 56-33 69-34q10-1 19 8c10 10 7 21 7 29a87 87 0 01-1 10l-2 12-2 13a112 112 0 00-1 13z" transform="translate(-20 -468)"/><path class="cls-1" d="M1156 841c-25 15-36 29-35 46 1 7 5 11 14 11 8 0 33-10 59-27l23-15q24-17 40-31l14-43q27-78 59-132c25-42 56-78 92-82q21-3 32 4 22 11 20 28t-8 36c-5 13-10 20-18 32a424 424 0 01-24 38l-34 43-23 32q-19 37-20 63c-1 25 7 37 24 36 10 0 29-12 57-34l37-31q26-24 51-34l12-4q14 0 13 14c-1 14-12 36-34 63-14 19-44 45-87 78-49 39-88 57-115 57-21 1-36-8-45-26q-9-16-13-47l-24 18c-66 47-120 67-150 67-24 0-43-10-56-29-12-17-10-34-9-58 1-26 11-45 31-67 33-36 38-35 65-53 21-13 94-40 100-41a39 39 0 0116 2 78 78 0 0115 8q17 11 16 23 0 10-12 17" transform="translate(-20 -468)"/><path class="cls-1" d="M1438 902a23 23 0 01-11-3 25 25 0 01-9-7c-6-8-17-3-16-17 1-15 33-39 47-66 24-47 65-76 79-83 32-15 33-17 53-18 17-2 29 2 35 11l4 6q4 8 9 7t16-2l46-6 17-2q6-1 14 3a42 42 0 0114 10q12 15 11 33c-1 13-18 33-50 61l-23 21c-16 15-25 24-25 28s1 7 5 10a18 18 0 0012 3q7 0 16-3t22-11l30-17 65-40 30-20c21-13 35-20 44-21s15 1 20 4 8 8 7 16-6 19-17 33a243 243 0 01-33 36l-33 27-37 27q-20 15-45 29a457 457 0 01-51 26c-39 17-74 25-105 25-44 0-69-10-77-31a49 49 0 01-3-22q1-11 6-25a183 183 0 0115-28 257 257 0 0140-49c13-13 20-20 20-23s-2-6-6-6l-19-1c-4 0-12 6-25 16l-30 27c-33 28-53 41-62 42zM471 1085H98a78 78 0 01-78-77V635a78 78 0 0178-78l429 4-48 46H98a28 28 0 00-28 28v373a28 28 0 0028 27h373a28 28 0 0025-17l2-3a68 68 0 0023 2h3a118 118 0 0024-3l-1 7a78 78 0 01-76 64z" transform="translate(-20 -468)"/><path class="cls-1" d="M548 755l-15 7-17 9-18 9v-22l19-24 13-15 18-21z" transform="translate(-20 -468)"/><path class="cls-1" d="M114 853a526 526 0 0149 30l11 8c7 6-6-4-1 0l5 4 23 19 19 20 9 11 6 6c1 2 5 8-1-1l16 23a245 245 0 0113 25c5 12 20 19 33 19 12 0 28-7 33-19 20-47 43-94 71-137l48-66 11-14c2-4-6 6-3 3l3-3 5-7 19-24c35-43 72-85 113-123l29-24 7-6c0 1-8 6-3 3l4-3 15-11c20-14 39-27 64-36l-9 4 12-5c9-4 18-13 23-20 5-8 5-18 4-27-2-17-15-45-53-29-46 20-84 48-123 80a788 788 0 00-86 82l-41 48c-31 38-61 77-89 117a764 764 0 00-87 159h66c-17-37-44-71-74-99-31-28-65-53-102-74-17-9-43-4-53 14-9 18-5 42 14 53z" transform="translate(-20 -468)"/></svg>