<svg xmlns="http://www.w3.org/2000/svg" width="115.156" height="37.836" viewBox="0 0 115.156 37.836">
  <g id="VendrLogoV2" transform="translate(0 -0.232)">
    <path id="Path_74" data-name="Path 74" d="M430.72,491.7q.735.122.49,1.041a4.511,4.511,0,0,1-.674,1.47,7.165,7.165,0,0,1-1.47,1.592,17.627,17.627,0,0,1-1.9,1.409q-1.041.674-2.45,1.47a22.764,22.764,0,0,1-2.817,1.47,23.881,23.881,0,0,1-3.185,1.1,14.631,14.631,0,0,1-6.37.551,5.924,5.924,0,0,1-3.491-2.021,4.183,4.183,0,0,1-.857-3.736,9.678,9.678,0,0,1,4.1-5.818,20.56,20.56,0,0,1,6.86-3.307,10.813,10.813,0,0,1,3.92-.49,2.792,2.792,0,0,1,1.96.919,2.444,2.444,0,0,1,.49,2.266c-.367,1.409-1.654,2.879-3.92,4.287l-.919.612-.612.306a25.472,25.472,0,0,1-4.594,1.9,2.939,2.939,0,0,0,1.409.8,3.982,3.982,0,0,0,1.347-.061,11.7,11.7,0,0,0,1.47-.368,14.672,14.672,0,0,0,1.837-.674q.98-.429,2.021-.98c1.592-.8,5.022-5.757,6.247-6.676.674-.49-.551,3.246.367,3A2.266,2.266,0,0,1,430.72,491.7Zm-16.353,2.634.8-.367.735-.306a33.394,33.394,0,0,0,3.614-1.9c.368-.245.49-.429.49-.551a1.163,1.163,0,0,0,0-.429,1.409,1.409,0,0,0-.122-.429.887.887,0,0,0-.612-.551,2.449,2.449,0,0,0-.8.061,5.206,5.206,0,0,0-.98.367,6.493,6.493,0,0,0-1.9,1.286,3.385,3.385,0,0,0-1.041,1.531Z" transform="translate(-384.111 -468.94)" fill="#3fc0ef"/>
    <path id="Path_75" data-name="Path 75" d="M697.252,496.657q-.061,1.531.8,1.531c1.409-.061,3.307-1.9,5.7-4.042l.49.367a4.88,4.88,0,0,1,2.266-1.1,1.62,1.62,0,0,1,1.1.245c.184.184.184.429.184.857a4.825,4.825,0,0,1-1.409,2.817,23.813,23.813,0,0,1-5.328,4.655,12.472,12.472,0,0,1-6.553,2.45c-1.286.061-2.082-.735-2.389-2.266a9.858,9.858,0,0,1-.122-1.1q-.122-1.347-.306-1.47a.913.913,0,0,0-.674,0,7.049,7.049,0,0,0-1.164.612l-1.47,1.041-4.9,3.552a4.957,4.957,0,0,1-1.96,1.041,2.144,2.144,0,0,1-.98-.245,3,3,0,0,1-.8-.612,2.372,2.372,0,0,1-.735-1.592,18.789,18.789,0,0,1,2.2-8.452,8.3,8.3,0,0,1,3.062-3.614,4.533,4.533,0,0,1,2.082-.612c1.347-.122,2.021.368,1.96,1.347a9.685,9.685,0,0,1-1.164,3l-.49.98-.49,1.164q.061.49.367.49a2.645,2.645,0,0,0,1.041-.612l2.817-2.389,1.409-1.164a10.319,10.319,0,0,1,4.226-2.082,1.732,1.732,0,0,1,1.164.49,2.05,2.05,0,0,1,.429,1.776,5.338,5.338,0,0,1-.061.612l-.122.735-.122.8A6.992,6.992,0,0,0,697.252,496.657Z" transform="translate(-638.638 -472.982)" fill="#3fc0ef"/>
    <path id="Path_76" data-name="Path 76" d="M1016.334,320.876c-1.531.919-2.2,1.776-2.144,2.817.061.49.306.674.858.674a10.1,10.1,0,0,0,3.614-1.654l1.347-.919a26.453,26.453,0,0,0,2.511-1.9l.858-2.634a44.484,44.484,0,0,1,3.614-8.085c1.531-2.572,3.43-4.777,5.635-5.022a2.89,2.89,0,0,1,1.96.245q1.286.674,1.225,1.715a7.71,7.71,0,0,1-.49,2.2,8.9,8.9,0,0,1-1.1,1.96,25.965,25.965,0,0,1-1.47,2.327l-2.082,2.634-1.409,1.96a10.041,10.041,0,0,0-1.225,3.859q-.122,2.266,1.47,2.2c.613,0,1.776-.735,3.491-2.082l2.266-1.9a10.405,10.405,0,0,1,3.124-2.082l.735-.184q.857-.061.8.8c-.061.919-.735,2.2-2.082,3.859a32.2,32.2,0,0,1-5.328,4.839c-3,2.327-5.39,3.491-7.043,3.491a2.849,2.849,0,0,1-2.756-1.654,8.177,8.177,0,0,1-.8-2.879l-1.531,1.164c-3.981,2.879-7.288,4.042-9.126,4.042a3.954,3.954,0,0,1-3.43-1.776c-.735-1.041-.612-2.082-.551-3.552a6.087,6.087,0,0,1,1.9-4.1A15.125,15.125,0,0,1,1013.15,318a35.891,35.891,0,0,1,6.125-2.45,2.389,2.389,0,0,1,.98.122,4.656,4.656,0,0,1,.919.429q1.041.735.98,1.47,0,.551-.735.98" transform="translate(-946.758 -297.813)" fill="#3fc0ef"/>
    <path id="Path_77" data-name="Path 77" d="M1404.145,456.408a1.409,1.409,0,0,1-.674-.123,1.533,1.533,0,0,1-.551-.49c-.367-.49-1.041-.184-.98-1.041.061-.919,2.021-2.389,2.879-4.042a12.718,12.718,0,0,1,4.839-5.083c1.96-.919,2.021-1.041,3.246-1.1a2.114,2.114,0,0,1,2.144.674l.245.429q.245.429.551.367t.98-.122l2.817-.367,1.041-.122a1.267,1.267,0,0,1,.858.245,2.573,2.573,0,0,1,.857.551,2.891,2.891,0,0,1,.674,2.021c-.061.8-1.1,2.021-3.062,3.736l-1.409,1.286c-.98.919-1.531,1.47-1.531,1.715a.678.678,0,0,0,.306.612,1.1,1.1,0,0,0,.735.245l.98-.245a6.829,6.829,0,0,0,1.347-.674l1.837-1.041,3.981-2.45,1.837-1.225a8.126,8.126,0,0,1,2.695-1.286,1.836,1.836,0,0,1,1.225.245,1,1,0,0,1,.429,1.041,4.34,4.34,0,0,1-1.041,1.96,14.817,14.817,0,0,1-2.021,2.2l-2.021,1.654-2.266,1.654a24.73,24.73,0,0,1-2.756,1.776,27.858,27.858,0,0,1-3.124,1.592,16.444,16.444,0,0,1-6.431,1.592c-2.695,0-4.226-.674-4.716-1.96a3,3,0,0,1-.184-1.286,5.081,5.081,0,0,1,.367-1.592,11.2,11.2,0,0,1,.919-1.715,15.739,15.739,0,0,1,2.45-3c.8-.8,1.225-1.225,1.225-1.409q0-.306-.368-.367a7.852,7.852,0,0,0-1.164-.061q-.367,0-1.531.98l-1.837,1.654C1405.921,455.551,1404.7,456.408,1404.145,456.408Z" transform="translate(-1317.297 -429.609)" fill="#3fc0ef"/>
    <path id="Path_78" data-name="Path 78" d="M47.622,326.4H24.777A4.777,4.777,0,0,1,20,321.622V298.777A4.777,4.777,0,0,1,24.777,294l26.275.245-2.94,2.817H24.777a1.715,1.715,0,0,0-1.715,1.715v22.845a1.715,1.715,0,0,0,1.715,1.715H47.622a1.715,1.715,0,0,0,1.531-1.1l.122-.184a3.824,3.824,0,0,0,1.286.123,1.155,1.155,0,0,1,.122,0,1.409,1.409,0,0,0,.184,0,7.168,7.168,0,0,0,1.47-.184l-.061.429a4.777,4.777,0,0,1-4.655,3.981Z" transform="translate(-20 -288.331)" fill="#313131"/>
    <path id="Path_79" data-name="Path 79" d="M501.062,438.491l-.919.49-1.041.49-1.1.612v-1.409l1.164-1.47.8-.857,1.1-1.347Z" transform="translate(-468.724 -420.696)" fill="#313131"/>
    <path id="Path_80" data-name="Path 80" d="M96.546,228.8a32.4,32.4,0,0,1,3,1.9l.674.49c.429.306-.367-.306-.061-.061l.306.245,1.409,1.225a11.1,11.1,0,0,1,1.164,1.225l.551.612.367.367c.061.122.306.49-.061-.061l.98,1.409a14.882,14.882,0,0,1,.8,1.531,2.222,2.222,0,0,0,2.021,1.164,2.29,2.29,0,0,0,2.021-1.164,54.455,54.455,0,0,1,4.349-8.391l2.94-4.042.612-.857-.122.184.184-.184.306-.429,1.164-1.47a73.1,73.1,0,0,1,6.921-7.533l1.715-1.409.49-.367-.184.122.245-.184.919-.674a18.6,18.6,0,0,1,3.92-2.2l-.551.245.735-.306a3.426,3.426,0,0,0,1.409-1.225,2.96,2.96,0,0,0,.245-1.654c-.122-1.041-.919-2.756-3.246-1.776a31.835,31.835,0,0,0-7.533,4.9,48.2,48.2,0,0,0-5.267,5.022l-2.511,2.94c-1.9,2.327-3.736,4.716-5.451,7.166a46.67,46.67,0,0,0-5.328,9.8h4.042a19.455,19.455,0,0,0-4.532-6.125,32.243,32.243,0,0,0-6.247-4.471,2.348,2.348,0,1,0-2.389,4.042Z" transform="translate(-90.788 -205)" fill="#3fc0ef"/>
  </g>
</svg>
